<?xml version="1.0" encoding="utf-8"?>
<!-- Generator: Adobe Illustrator 22.0.1, SVG Export Plug-In . SVG Version: 6.00 Build 0)  -->
<svg version="1.1" id="layer" xmlns="http://www.w3.org/2000/svg" xmlns:xlink="http://www.w3.org/1999/xlink" x="0px" y="0px"
	 viewBox="0 0 570 470" style="enable-background:new 0 0 570 470;" xml:space="preserve">
<path d="M644.9,23.6l13.6-23.5l-13.8-23.9h-27.1L604-47.3h-27.6l-13.6,23.5h-26.6l-13.6-23.5H495l-13.6,23.5h-26.6l-13.6-23.5h-27.6
	L400-23.8h-26.6l-13.6-23.5h-27.6l-13.6,23.5H292l-13.6-23.5h-27.6l-13.6,23.5h-26.6l-13.6-23.5h-27.6l-13.6,23.5h-26.6l-13.6-23.5
	H88.1L74.5-23.8H47.9L34.3-47.3H6.7L-6.8-23.8h-26.6l-13.6-23.5h-27.6l-13.8,23.9l13.6,23.5l-13.6,23.5l13.6,23.5l-13.6,23.5
	L-74.9,94l-13.6,23.5l13.6,23.5l-13.6,23.5l13.6,23.5l-13.6,23.5l13.6,23.5l-13.6,23.5l13.6,23.5l-13.6,23.5l13.6,23.5l-13.6,23.5
	l13.6,23.5l-13.6,23.5l13.6,23.5l-13.6,23.5l13.6,23.5l-13.6,23.5l13.8,23.9h27.6l13.6-23.5h26.6l13.6,23.5h27.6l13.6-23.5h26.6
	l13.6,23.5h27.6l13.6-23.5h26.6l13.6,23.5h27.6l13.6-23.5h26.6l13.6,23.5h27.6l13.6-23.5h26.6l13.6,23.5h27.6l13.6-23.5H400
	l13.6,23.5h27.6l13.6-23.5h26.6l13.6,23.5h27.6l13.6-23.5h26.6l13.6,23.5H604l13.6-23.5h27.1l13.8-23.9l-13.6-23.5l13.6-23.5
	l-13.6-23.5l13.6-23.5l-13.6-23.5l13.6-23.5l-13.6-23.5l13.6-23.5l-13.6-23.5l13.6-23.5l-13.6-23.5l13.6-23.5l-13.6-23.5l13.6-23.5
	l-13.6-23.5L658.5,94l-13.6-23.5l13.6-23.5L644.9,23.6z M7.2,0.5h26.2L20.3,23.1H-5.9L7.2,0.5z M88.6,0.5h26.2l-13.1,22.7H75.5
	L88.6,0.5z M170,0.5h26.2L183,23.1h-26.2L170,0.5z M251.3,0.5h26.2l-13.1,22.7h-26.2L251.3,0.5z M332.7,0.5h26.2l-13.1,22.7h-26.2
	L332.7,0.5z M414.1,0.5h26.2l-13.1,22.7H401L414.1,0.5z M495.5,0.5h26.2l-13.1,22.7h-26.2L495.5,0.5z M576.8,0.5H603l-13.1,22.7
	h-26.2L576.8,0.5z M7.2,47.5h26.2L20.3,70.1H-5.9L7.2,47.5z M88.6,47.5h26.2l-13.1,22.7H75.5L88.6,47.5z M170,47.5h26.2L183,70.1
	h-26.2L170,47.5z M251.3,47.5h26.2l-13.1,22.7h-26.2L251.3,47.5z M332.7,47.5h26.2l-13.1,22.7h-26.2L332.7,47.5z M414.1,47.5h26.2
	l-13.1,22.7H401L414.1,47.5z M495.5,47.5h26.2l-13.1,22.7h-26.2L495.5,47.5z M88.6,94.5h26.2l-13.1,22.7H75.5L88.6,94.5z M170,94.5
	h26.2L183,117.1h-26.2L170,94.5z M251.3,94.5h26.2l-13.1,22.7h-26.2L251.3,94.5z M332.7,94.5h26.2l-13.1,22.7h-26.2L332.7,94.5z
	 M414.1,94.5h26.2l-13.1,22.7H401L414.1,94.5z M495.5,94.5h26.2l-13.1,22.7h-26.2L495.5,94.5z M88.6,141.4h26.2l-13.1,22.7H75.5
	L88.6,141.4z M170,141.4h26.2L183,164.1h-26.2L170,141.4z M251.3,141.4h26.2l-13.1,22.7h-26.2L251.3,141.4z M332.7,141.4h26.2
	l-13.1,22.7h-26.2L332.7,141.4z M414.1,141.4h26.2l-13.1,22.7H401L414.1,141.4z M495.5,141.4h26.2l-13.1,22.7h-26.2L495.5,141.4z
	 M170,188.4h26.2L183,211.1h-26.2L170,188.4z M251.3,188.4h26.2l-13.1,22.7h-26.2L251.3,188.4z M332.7,188.4h26.2l-13.1,22.7h-26.2
	L332.7,188.4z M414.1,188.4h26.2l-13.1,22.7H401L414.1,188.4z M210.6,211.9h26.2l-13.1,22.7h-26.2L210.6,211.9z M170,234.6
	l-13.1-22.7H183l13.1,22.7H170z M169.2,235l-13.1,22.7L143.1,235l13.1-22.7L169.2,235z M170,235.4h26.2L183,258.1h-26.2L170,235.4z
	 M197.6,235.4h26.2l13.1,22.7h-26.2L197.6,235.4z M224.4,235l13.1-22.7l13.1,22.7l-13.1,22.7L224.4,235z M292,211.9h26.2l-13.1,22.7
	h-26.2L292,211.9z M251.3,234.6l-13.1-22.7h26.2l13.1,22.7H251.3z M251.3,235.4h26.2l-13.1,22.7h-26.2L251.3,235.4z M278.9,235.4
	h26.2l13.1,22.7H292L278.9,235.4z M305.8,235l13.1-22.7L332,235l-13.1,22.7L305.8,235z M373.4,211.9h26.2l-13.1,22.7h-26.2
	L373.4,211.9z M332.7,234.6l-13.1-22.7h26.2l13.1,22.7H332.7z M332.7,235.4h26.2l-13.1,22.7h-26.2L332.7,235.4z M360.3,235.4h26.2
	l13.1,22.7h-26.2L360.3,235.4z M387.2,235l13.1-22.7l13.1,22.7l-13.1,22.7L387.2,235z M454.8,211.9h26.2l-13.1,22.7h-26.2
	L454.8,211.9z M414.1,234.6L401,211.9h26.2l13.1,22.7H414.1z M414.1,235.4h26.2l-13.1,22.7H401L414.1,235.4z M441.7,235.4h26.2
	l13.1,22.7h-26.2L441.7,235.4z M468.6,235l13.1-22.7l13.1,22.7l-13.1,22.7L468.6,235z M454.1,211.5L441,234.2l-13.1-22.7l13.1-22.7
	L454.1,211.5z M372.7,211.5l-13.1,22.7l-13.1-22.7l13.1-22.7L372.7,211.5z M291.3,211.5l-13.1,22.7l-13.1-22.7l13.1-22.7
	L291.3,211.5z M209.9,211.5l-13.1,22.7l-13.1-22.7l13.1-22.7L209.9,211.5z M129.3,211.9h26.2l-13.1,22.7h-26.2L129.3,211.9z
	 M142.3,235.4l13.1,22.7h-26.2l-13.1-22.7H142.3z M156.9,258.9H183l13.1,22.7H170L156.9,258.9z M183.8,258.5l13.1-22.7l13.1,22.7
	l-13.1,22.7L183.8,258.5z M238.2,258.9h26.2l13.1,22.7h-26.2L238.2,258.9z M265.1,258.5l13.1-22.7l13.1,22.7l-13.1,22.7L265.1,258.5
	z M319.6,258.9h26.2l13.1,22.7h-26.2L319.6,258.9z M346.5,258.5l13.1-22.7l13.1,22.7l-13.1,22.7L346.5,258.5z M401,258.9h26.2
	l13.1,22.7h-26.2L401,258.9z M427.9,258.5l13.1-22.7l13.1,22.7L441,281.2L427.9,258.5z M454.8,211.1l-13.1-22.7h26.2l13.1,22.7
	H454.8z M373.4,211.1l-13.1-22.7h26.2l13.1,22.7H373.4z M292,211.1l-13.1-22.7h26.2l13.1,22.7H292z M210.6,211.1l-13.1-22.7h26.2
	l13.1,22.7H210.6z M129.3,211.1l-13.1-22.7h26.2l13.1,22.7H129.3z M129.3,258.9h26.2l-13.1,22.7h-26.2L129.3,258.9z M210.6,258.9
	h26.2l-13.1,22.7h-26.2L210.6,258.9z M292,258.9h26.2l-13.1,22.7h-26.2L292,258.9z M373.4,258.9h26.2l-13.1,22.7h-26.2L373.4,258.9z
	 M454.8,258.9h26.2l-13.1,22.7h-26.2L454.8,258.9z M494.8,188l-13.1,22.7L468.6,188l13.1-22.7L494.8,188z M467.9,187.6h-26.2
	l13.1-22.7h26.2L467.9,187.6z M414.1,187.6L401,164.9h26.2l13.1,22.7H414.1z M413.4,188l-13.1,22.7L387.2,188l13.1-22.7L413.4,188z
	 M386.5,187.6h-26.2l13.1-22.7h26.2L386.5,187.6z M332.7,187.6l-13.1-22.7h26.2l13.1,22.7H332.7z M332,188l-13.1,22.7L305.8,188
	l13.1-22.7L332,188z M305.1,187.6h-26.2l13.1-22.7h26.2L305.1,187.6z M251.3,187.6l-13.1-22.7h26.2l13.1,22.7H251.3z M250.6,188
	l-13.1,22.7L224.4,188l13.1-22.7L250.6,188z M223.7,187.6h-26.2l13.1-22.7h26.2L223.7,187.6z M170,187.6l-13.1-22.7H183l13.1,22.7
	H170z M169.2,188l-13.1,22.7L143.1,188l13.1-22.7L169.2,188z M142.3,187.6h-26.2l13.1-22.7h26.2L142.3,187.6z M128.5,211.5
	l-13.1,22.7l-13.1-22.7l13.1-22.7L128.5,211.5z M128.5,258.5l-13.1,22.7l-13.1-22.7l13.1-22.7L128.5,258.5z M116.2,282.4h26.2
	l13.1,22.7h-26.2L116.2,282.4z M143.1,282l13.1-22.7l13.1,22.7l-13.1,22.7L143.1,282z M170,282.4h26.2L183,305.1h-26.2L170,282.4z
	 M197.6,282.4h26.2l13.1,22.7h-26.2L197.6,282.4z M224.4,282l13.1-22.7l13.1,22.7l-13.1,22.7L224.4,282z M251.3,282.4h26.2
	l-13.1,22.7h-26.2L251.3,282.4z M278.9,282.4h26.2l13.1,22.7H292L278.9,282.4z M305.8,282l13.1-22.7L332,282l-13.1,22.7L305.8,282z
	 M332.7,282.4h26.2l-13.1,22.7h-26.2L332.7,282.4z M360.3,282.4h26.2l13.1,22.7h-26.2L360.3,282.4z M387.2,282l13.1-22.7l13.1,22.7
	l-13.1,22.7L387.2,282z M414.1,282.4h26.2l-13.1,22.7H401L414.1,282.4z M441.7,282.4h26.2l13.1,22.7h-26.2L441.7,282.4z M468.6,282
	l13.1-22.7l13.1,22.7l-13.1,22.7L468.6,282z M495.5,282.4h26.2l-13.1,22.7h-26.2L495.5,282.4z M495.5,281.6l-13.1-22.7h26.2
	l13.1,22.7H495.5z M482.4,258.1l13.1-22.7h26.2l-13.1,22.7H482.4z M495.5,234.6l-13.1-22.7h26.2l13.1,22.7H495.5z M482.4,211.1
	l13.1-22.7h26.2l-13.1,22.7H482.4z M495.5,187.6l-13.1-22.7h26.2l13.1,22.7H495.5z M454.1,164.5L441,187.2l-13.1-22.7l13.1-22.7
	L454.1,164.5z M372.7,164.5l-13.1,22.7l-13.1-22.7l13.1-22.7L372.7,164.5z M291.3,164.5l-13.1,22.7l-13.1-22.7l13.1-22.7
	L291.3,164.5z M209.9,164.5l-13.1,22.7l-13.1-22.7l13.1-22.7L209.9,164.5z M128.5,164.5l-13.1,22.7l-13.1-22.7l13.1-22.7
	L128.5,164.5z M101.7,164.9l13.1,22.7H88.6l-13.1-22.7H101.7z M88.6,188.4h26.2l-13.1,22.7H75.5L88.6,188.4z M101.7,211.9l13.1,22.7
	H88.6l-13.1-22.7H101.7z M88.6,235.4h26.2l-13.1,22.7H75.5L88.6,235.4z M101.7,258.9l13.1,22.7H88.6l-13.1-22.7H101.7z M88.6,282.4
	h26.2l-13.1,22.7H75.5L88.6,282.4z M75.5,305.9h26.2l13.1,22.7H88.6L75.5,305.9z M102.4,305.5l13.1-22.7l13.1,22.7l-13.1,22.7
	L102.4,305.5z M156.9,305.9H183l13.1,22.7H170L156.9,305.9z M183.8,305.5l13.1-22.7l13.1,22.7l-13.1,22.7L183.8,305.5z M238.2,305.9
	h26.2l13.1,22.7h-26.2L238.2,305.9z M265.1,305.5l13.1-22.7l13.1,22.7l-13.1,22.7L265.1,305.5z M319.6,305.9h26.2l13.1,22.7h-26.2
	L319.6,305.9z M346.5,305.5l13.1-22.7l13.1,22.7l-13.1,22.7L346.5,305.5z M401,305.9h26.2l13.1,22.7h-26.2L401,305.9z M427.9,305.5
	l13.1-22.7l13.1,22.7L441,328.1L427.9,305.5z M482.4,305.9h26.2l13.1,22.7h-26.2L482.4,305.9z M509.3,305.5l13.1-22.7l13.1,22.7
	l-13.1,22.7L509.3,305.5z M509.3,258.5l13.1-22.7l13.1,22.7l-13.1,22.7L509.3,258.5z M509.3,211.5l13.1-22.7l13.1,22.7l-13.1,22.7
	L509.3,211.5z M509.3,164.5l13.1-22.7l13.1,22.7l-13.1,22.7L509.3,164.5z M454.8,164.1l-13.1-22.7h26.2l13.1,22.7H454.8z
	 M373.4,164.1l-13.1-22.7h26.2l13.1,22.7H373.4z M292,164.1l-13.1-22.7h26.2l13.1,22.7H292z M210.6,164.1l-13.1-22.7h26.2l13.1,22.7
	H210.6z M129.3,164.1l-13.1-22.7h26.2l13.1,22.7H129.3z M129.3,305.9h26.2l-13.1,22.7h-26.2L129.3,305.9z M210.6,305.9h26.2
	l-13.1,22.7h-26.2L210.6,305.9z M292,305.9h26.2l-13.1,22.7h-26.2L292,305.9z M373.4,305.9h26.2l-13.1,22.7h-26.2L373.4,305.9z
	 M454.8,305.9h26.2l-13.1,22.7h-26.2L454.8,305.9z M495.5,140.6l-13.1-22.7h26.2l13.1,22.7H495.5z M494.8,141l-13.1,22.7L468.6,141
	l13.1-22.7L494.8,141z M467.9,140.6h-26.2l13.1-22.7h26.2L467.9,140.6z M414.1,140.6L401,117.9h26.2l13.1,22.7H414.1z M413.4,141
	l-13.1,22.7L387.2,141l13.1-22.7L413.4,141z M386.5,140.6h-26.2l13.1-22.7h26.2L386.5,140.6z M332.7,140.6l-13.1-22.7h26.2
	l13.1,22.7H332.7z M332,141l-13.1,22.7L305.8,141l13.1-22.7L332,141z M305.1,140.6h-26.2l13.1-22.7h26.2L305.1,140.6z M251.3,140.6
	l-13.1-22.7h26.2l13.1,22.7H251.3z M250.6,141l-13.1,22.7L224.4,141l13.1-22.7L250.6,141z M223.7,140.6h-26.2l13.1-22.7h26.2
	L223.7,140.6z M170,140.6l-13.1-22.7H183l13.1,22.7H170z M169.2,141l-13.1,22.7L143.1,141l13.1-22.7L169.2,141z M142.3,140.6h-26.2
	l13.1-22.7h26.2L142.3,140.6z M88.6,140.6l-13.1-22.7h26.2l13.1,22.7H88.6z M87.9,141l-13.1,22.7L61.7,141l13.1-22.7L87.9,141z
	 M87.9,188l-13.1,22.7L61.7,188l13.1-22.7L87.9,188z M87.9,235l-13.1,22.7L61.7,235l13.1-22.7L87.9,235z M87.9,282l-13.1,22.7
	L61.7,282l13.1-22.7L87.9,282z M87.9,329l-13.1,22.7L61.7,329l13.1-22.7L87.9,329z M88.6,329.4h26.2l-13.1,22.7H75.5L88.6,329.4z
	 M116.2,329.4h26.2l13.1,22.7h-26.2L116.2,329.4z M143.1,329l13.1-22.7l13.1,22.7l-13.1,22.7L143.1,329z M170,329.4h26.2L183,352.1
	h-26.2L170,329.4z M197.6,329.4h26.2l13.1,22.7h-26.2L197.6,329.4z M224.4,329l13.1-22.7l13.1,22.7l-13.1,22.7L224.4,329z
	 M251.3,329.4h26.2l-13.1,22.7h-26.2L251.3,329.4z M278.9,329.4h26.2l13.1,22.7H292L278.9,329.4z M305.8,329l13.1-22.7L332,329
	l-13.1,22.7L305.8,329z M332.7,329.4h26.2l-13.1,22.7h-26.2L332.7,329.4z M360.3,329.4h26.2l13.1,22.7h-26.2L360.3,329.4z
	 M387.2,329l13.1-22.7l13.1,22.7l-13.1,22.7L387.2,329z M414.1,329.4h26.2l-13.1,22.7H401L414.1,329.4z M441.7,329.4h26.2l13.1,22.7
	h-26.2L441.7,329.4z M468.6,329l13.1-22.7l13.1,22.7l-13.1,22.7L468.6,329z M495.5,329.4h26.2l-13.1,22.7h-26.2L495.5,329.4z
	 M535.4,117.5l-13.1,22.7l-13.1-22.7l13.1-22.7L535.4,117.5z M454.1,117.5L441,140.2l-13.1-22.7L441,94.9L454.1,117.5z M372.7,117.5
	l-13.1,22.7l-13.1-22.7l13.1-22.7L372.7,117.5z M291.3,117.5l-13.1,22.7l-13.1-22.7l13.1-22.7L291.3,117.5z M209.9,117.5l-13.1,22.7
	l-13.1-22.7l13.1-22.7L209.9,117.5z M128.5,117.5l-13.1,22.7l-13.1-22.7l13.1-22.7L128.5,117.5z M47.9,117.9h26.2L61,140.6H34.8
	L47.9,117.9z M61,141.4l13.1,22.7H47.9l-13.1-22.7H61z M47.9,164.9h26.2L61,187.6H34.8L47.9,164.9z M61,188.4l13.1,22.7H47.9
	l-13.1-22.7H61z M47.9,211.9h26.2L61,234.6H34.8L47.9,211.9z M61,235.4l13.1,22.7H47.9l-13.1-22.7H61z M47.9,258.9h26.2L61,281.6
	H34.8L47.9,258.9z M61,282.4l13.1,22.7H47.9l-13.1-22.7H61z M47.9,305.9h26.2L61,328.6H34.8L47.9,305.9z M61,329.4l13.1,22.7H47.9
	l-13.1-22.7H61z M75.5,352.9h26.2l13.1,22.7H88.6L75.5,352.9z M102.4,352.5l13.1-22.7l13.1,22.7l-13.1,22.7L102.4,352.5z
	 M156.9,352.9H183l13.1,22.7H170L156.9,352.9z M183.8,352.5l13.1-22.7l13.1,22.7l-13.1,22.7L183.8,352.5z M238.2,352.9h26.2
	l13.1,22.7h-26.2L238.2,352.9z M265.1,352.5l13.1-22.7l13.1,22.7l-13.1,22.7L265.1,352.5z M319.6,352.9h26.2l13.1,22.7h-26.2
	L319.6,352.9z M346.5,352.5l13.1-22.7l13.1,22.7l-13.1,22.7L346.5,352.5z M401,352.9h26.2l13.1,22.7h-26.2L401,352.9z M427.9,352.5
	l13.1-22.7l13.1,22.7L441,375.1L427.9,352.5z M482.4,352.9h26.2l13.1,22.7h-26.2L482.4,352.9z M509.3,352.5l13.1-22.7l13.1,22.7
	l-13.1,22.7L509.3,352.5z M536.2,352.1l-13.1-22.7h26.2l13.1,22.7H536.2z M523.1,328.6l13.1-22.7h26.2l-13.1,22.7H523.1z
	 M536.2,305.1l-13.1-22.7h26.2l13.1,22.7H536.2z M523.1,281.6l13.1-22.7h26.2l-13.1,22.7H523.1z M536.2,258.1l-13.1-22.7h26.2
	l13.1,22.7H536.2z M523.1,234.6l13.1-22.7h26.2l-13.1,22.7H523.1z M536.2,211.1l-13.1-22.7h26.2l13.1,22.7H536.2z M523.1,187.6
	l13.1-22.7h26.2l-13.1,22.7H523.1z M536.2,164.1l-13.1-22.7h26.2l13.1,22.7H536.2z M523.1,140.6l13.1-22.7h26.2l-13.1,22.7H523.1z
	 M536.2,117.1l-13.1-22.7h26.2l13.1,22.7H536.2z M454.8,117.1l-13.1-22.7h26.2l13.1,22.7H454.8z M373.4,117.1l-13.1-22.7h26.2
	l13.1,22.7H373.4z M292,117.1l-13.1-22.7h26.2l13.1,22.7H292z M210.6,117.1l-13.1-22.7h26.2l13.1,22.7H210.6z M129.3,117.1
	l-13.1-22.7h26.2l13.1,22.7H129.3z M47.9,117.1L34.8,94.5H61l13.1,22.7H47.9z M47.9,352.9h26.2L61,375.5H34.8L47.9,352.9z
	 M129.3,352.9h26.2l-13.1,22.7h-26.2L129.3,352.9z M210.6,352.9h26.2l-13.1,22.7h-26.2L210.6,352.9z M292,352.9h26.2l-13.1,22.7
	h-26.2L292,352.9z M373.4,352.9h26.2l-13.1,22.7h-26.2L373.4,352.9z M454.8,352.9h26.2l-13.1,22.7h-26.2L454.8,352.9z M536.2,352.9
	h26.2l-13.1,22.7h-26.2L536.2,352.9z M550,329l13.1-22.7l13.1,22.7L563,351.6L550,329z M550,282l13.1-22.7l13.1,22.7L563,304.6
	L550,282z M550,235l13.1-22.7l13.1,22.7L563,257.7L550,235z M550,188l13.1-22.7l13.1,22.7L563,210.7L550,188z M550,141l13.1-22.7
	l13.1,22.7L563,163.7L550,141z M550,94L563,71.4L576.1,94L563,116.7L550,94z M549.2,93.6h-26.2L536.2,71h26.2L549.2,93.6z
	 M495.5,93.6L482.4,71h26.2l13.1,22.7H495.5z M494.8,94l-13.1,22.7L468.6,94l13.1-22.7L494.8,94z M467.9,93.6h-26.2L454.8,71h26.2
	L467.9,93.6z M414.1,93.6L401,71h26.2l13.1,22.7H414.1z M413.4,94l-13.1,22.7L387.2,94l13.1-22.7L413.4,94z M386.5,93.6h-26.2
	L373.4,71h26.2L386.5,93.6z M332.7,93.6L319.6,71h26.2l13.1,22.7H332.7z M332,94l-13.1,22.7L305.8,94l13.1-22.7L332,94z M305.1,93.6
	h-26.2L292,71h26.2L305.1,93.6z M251.3,93.6L238.2,71h26.2l13.1,22.7H251.3z M250.6,94l-13.1,22.7L224.4,94l13.1-22.7L250.6,94z
	 M223.7,93.6h-26.2L210.6,71h26.2L223.7,93.6z M170,93.6L156.9,71H183l13.1,22.7H170z M169.2,94l-13.1,22.7L143.1,94l13.1-22.7
	L169.2,94z M142.3,93.6h-26.2L129.3,71h26.2L142.3,93.6z M88.6,93.6L75.5,71h26.2l13.1,22.7H88.6z M87.9,94l-13.1,22.7L61.7,94
	l13.1-22.7L87.9,94z M61,93.6H34.8L47.9,71h26.2L61,93.6z M47.2,117.5l-13.1,22.7L21,117.5l13.1-22.7L47.2,117.5z M47.2,164.5
	l-13.1,22.7L21,164.5l13.1-22.7L47.2,164.5z M47.2,211.5l-13.1,22.7L21,211.5l13.1-22.7L47.2,211.5z M47.2,258.5l-13.1,22.7
	L21,258.5l13.1-22.7L47.2,258.5z M47.2,305.5l-13.1,22.7L21,305.5l13.1-22.7L47.2,305.5z M47.2,352.5l-13.1,22.7L21,352.5l13.1-22.7
	L47.2,352.5z M34.8,376.4H61L74.1,399H47.9L34.8,376.4z M61.7,376l13.1-22.7L87.9,376l-13.1,22.7L61.7,376z M88.6,376.4h26.2
	L101.7,399H75.5L88.6,376.4z M116.2,376.4h26.2l13.1,22.7h-26.2L116.2,376.4z M143.1,376l13.1-22.7l13.1,22.7l-13.1,22.7L143.1,376z
	 M170,376.4h26.2L183,399h-26.2L170,376.4z M197.6,376.4h26.2l13.1,22.7h-26.2L197.6,376.4z M224.4,376l13.1-22.7l13.1,22.7
	l-13.1,22.7L224.4,376z M251.3,376.4h26.2L264.4,399h-26.2L251.3,376.4z M278.9,376.4h26.2l13.1,22.7H292L278.9,376.4z M305.8,376
	l13.1-22.7L332,376l-13.1,22.7L305.8,376z M332.7,376.4h26.2L345.8,399h-26.2L332.7,376.4z M360.3,376.4h26.2l13.1,22.7h-26.2
	L360.3,376.4z M387.2,376l13.1-22.7l13.1,22.7l-13.1,22.7L387.2,376z M414.1,376.4h26.2L427.2,399H401L414.1,376.4z M441.7,376.4
	h26.2l13.1,22.7h-26.2L441.7,376.4z M468.6,376l13.1-22.7l13.1,22.7l-13.1,22.7L468.6,376z M495.5,376.4h26.2L508.6,399h-26.2
	L495.5,376.4z M523.1,376.4h26.2l13.1,22.7h-26.2L523.1,376.4z M550,376l13.1-22.7l13.1,22.7L563,398.6L550,376z M535.4,70.5
	l-13.1,22.7l-13.1-22.7l13.1-22.7L535.4,70.5z M454.1,70.5L441,93.2l-13.1-22.7L441,47.9L454.1,70.5z M372.7,70.5l-13.1,22.7
	l-13.1-22.7l13.1-22.7L372.7,70.5z M291.3,70.5l-13.1,22.7l-13.1-22.7l13.1-22.7L291.3,70.5z M209.9,70.5l-13.1,22.7l-13.1-22.7
	l13.1-22.7L209.9,70.5z M128.5,70.5l-13.1,22.7l-13.1-22.7l13.1-22.7L128.5,70.5z M47.2,70.5L34.1,93.2L21,70.5l13.1-22.7L47.2,70.5
	z M20.3,71l13.1,22.7H7.2L-5.9,71H20.3z M7.2,94.5h26.2l-13.1,22.7H-5.9L7.2,94.5z M20.3,117.9l13.1,22.7H7.2l-13.1-22.7H20.3z
	 M7.2,141.4h26.2l-13.1,22.7H-5.9L7.2,141.4z M20.3,164.9l13.1,22.7H7.2l-13.1-22.7H20.3z M7.2,188.4h26.2l-13.1,22.7H-5.9
	L7.2,188.4z M20.3,211.9l13.1,22.7H7.2l-13.1-22.7H20.3z M7.2,235.4h26.2l-13.1,22.7H-5.9L7.2,235.4z M20.3,258.9l13.1,22.7H7.2
	l-13.1-22.7H20.3z M7.2,282.4h26.2l-13.1,22.7H-5.9L7.2,282.4z M20.3,305.9l13.1,22.7H7.2l-13.1-22.7H20.3z M7.2,329.4h26.2
	l-13.1,22.7H-5.9L7.2,329.4z M20.3,352.9l13.1,22.7H7.2l-13.1-22.7H20.3z M7.2,376.4h26.2L20.3,399H-5.9L7.2,376.4z M-5.9,399.9
	h26.2l13.1,22.7H7.2L-5.9,399.9z M21,399.5l13.1-22.7l13.1,22.7l-13.1,22.7L21,399.5z M75.5,399.9h26.2l13.1,22.7H88.6L75.5,399.9z
	 M102.4,399.5l13.1-22.7l13.1,22.7l-13.1,22.7L102.4,399.5z M156.9,399.9H183l13.1,22.7H170L156.9,399.9z M183.8,399.5l13.1-22.7
	l13.1,22.7l-13.1,22.7L183.8,399.5z M238.2,399.9h26.2l13.1,22.7h-26.2L238.2,399.9z M265.1,399.5l13.1-22.7l13.1,22.7l-13.1,22.7
	L265.1,399.5z M319.6,399.9h26.2l13.1,22.7h-26.2L319.6,399.9z M346.5,399.5l13.1-22.7l13.1,22.7l-13.1,22.7L346.5,399.5z
	 M401,399.9h26.2l13.1,22.7h-26.2L401,399.9z M427.9,399.5l13.1-22.7l13.1,22.7L441,422.1L427.9,399.5z M482.4,399.9h26.2l13.1,22.7
	h-26.2L482.4,399.9z M509.3,399.5l13.1-22.7l13.1,22.7l-13.1,22.7L509.3,399.5z M536.2,70.1l-13.1-22.7h26.2l13.1,22.7H536.2z
	 M454.8,70.1l-13.1-22.7h26.2l13.1,22.7H454.8z M373.4,70.1l-13.1-22.7h26.2l13.1,22.7H373.4z M292,70.1l-13.1-22.7h26.2l13.1,22.7
	H292z M210.6,70.1l-13.1-22.7h26.2l13.1,22.7H210.6z M129.3,70.1l-13.1-22.7h26.2l13.1,22.7H129.3z M47.9,70.1L34.8,47.5H61
	l13.1,22.7H47.9z M47.9,399.9h26.2L61,422.5H34.8L47.9,399.9z M129.3,399.9h26.2l-13.1,22.7h-26.2L129.3,399.9z M210.6,399.9h26.2
	l-13.1,22.7h-26.2L210.6,399.9z M292,399.9h26.2l-13.1,22.7h-26.2L292,399.9z M373.4,399.9h26.2l-13.1,22.7h-26.2L373.4,399.9z
	 M454.8,399.9h26.2l-13.1,22.7h-26.2L454.8,399.9z M536.2,399.9h26.2l-13.1,22.7h-26.2L536.2,399.9z M576.8,422.5l-13.1-22.7h26.2
	l13.1,22.7H576.8z M563.8,399l13.1-22.7H603L589.9,399H563.8z M576.8,375.5l-13.1-22.7h26.2l13.1,22.7H576.8z M563.8,352.1
	l13.1-22.7H603l-13.1,22.7H563.8z M576.8,328.6l-13.1-22.7h26.2l13.1,22.7H576.8z M563.8,305.1l13.1-22.7H603l-13.1,22.7H563.8z
	 M576.8,281.6l-13.1-22.7h26.2l13.1,22.7H576.8z M563.8,258.1l13.1-22.7H603l-13.1,22.7H563.8z M576.8,234.6l-13.1-22.7h26.2
	l13.1,22.7H576.8z M563.8,211.1l13.1-22.7H603l-13.1,22.7H563.8z M576.8,187.6l-13.1-22.7h26.2l13.1,22.7H576.8z M563.8,164.1
	l13.1-22.7H603l-13.1,22.7H563.8z M576.8,140.6l-13.1-22.7h26.2l13.1,22.7H576.8z M563.8,117.1l13.1-22.7H603l-13.1,22.7H563.8z
	 M576.8,93.6L563.8,71h26.2L603,93.6H576.8z M563.8,70.1l13.1-22.7H603l-13.1,22.7H563.8z M576.8,46.6L563.8,24h26.2L603,46.6H576.8
	z M576.1,47.1L563,69.7L550,47.1L563,24.4L576.1,47.1z M549.2,46.6h-26.2L536.2,24h26.2L549.2,46.6z M495.5,46.6L482.4,24h26.2
	l13.1,22.7H495.5z M494.8,47.1l-13.1,22.7l-13.1-22.7l13.1-22.7L494.8,47.1z M467.9,46.6h-26.2L454.8,24h26.2L467.9,46.6z
	 M414.1,46.6L401,24h26.2l13.1,22.7H414.1z M413.4,47.1l-13.1,22.7l-13.1-22.7l13.1-22.7L413.4,47.1z M386.5,46.6h-26.2L373.4,24
	h26.2L386.5,46.6z M332.7,46.6L319.6,24h26.2l13.1,22.7H332.7z M332,47.1l-13.1,22.7l-13.1-22.7l13.1-22.7L332,47.1z M305.1,46.6
	h-26.2L292,24h26.2L305.1,46.6z M251.3,46.6L238.2,24h26.2l13.1,22.7H251.3z M250.6,47.1l-13.1,22.7l-13.1-22.7l13.1-22.7
	L250.6,47.1z M223.7,46.6h-26.2L210.6,24h26.2L223.7,46.6z M170,46.6L156.9,24H183l13.1,22.7H170z M169.2,47.1l-13.1,22.7
	l-13.1-22.7l13.1-22.7L169.2,47.1z M142.3,46.6h-26.2L129.3,24h26.2L142.3,46.6z M88.6,46.6L75.5,24h26.2l13.1,22.7H88.6z
	 M87.9,47.1L74.8,69.7L61.7,47.1l13.1-22.7L87.9,47.1z M61,46.6H34.8L47.9,24h26.2L61,46.6z M7.2,46.6L-5.9,24h26.2l13.1,22.7H7.2z
	 M6.5,47.1L-6.6,69.7l-13.1-22.7l13.1-22.7L6.5,47.1z M6.5,94l-13.1,22.7L-19.7,94l13.1-22.7L6.5,94z M6.5,141l-13.1,22.7L-19.7,141
	l13.1-22.7L6.5,141z M6.5,188l-13.1,22.7L-19.7,188l13.1-22.7L6.5,188z M6.5,235l-13.1,22.7L-19.7,235l13.1-22.7L6.5,235z M6.5,282
	l-13.1,22.7L-19.7,282l13.1-22.7L6.5,282z M6.5,329l-13.1,22.7L-19.7,329l13.1-22.7L6.5,329z M6.5,376l-13.1,22.7L-19.7,376
	l13.1-22.7L6.5,376z M6.5,422.9l-13.1,22.7l-13.1-22.7l13.1-22.7L6.5,422.9z M7.2,423.4h26.2L20.3,446H-5.9L7.2,423.4z M34.8,423.4
	H61L74.1,446H47.9L34.8,423.4z M61.7,422.9l13.1-22.7l13.1,22.7l-13.1,22.7L61.7,422.9z M88.6,423.4h26.2L101.7,446H75.5L88.6,423.4
	z M116.2,423.4h26.2l13.1,22.7h-26.2L116.2,423.4z M143.1,422.9l13.1-22.7l13.1,22.7l-13.1,22.7L143.1,422.9z M170,423.4h26.2
	L183,446h-26.2L170,423.4z M197.6,423.4h26.2l13.1,22.7h-26.2L197.6,423.4z M224.4,422.9l13.1-22.7l13.1,22.7l-13.1,22.7
	L224.4,422.9z M251.3,423.4h26.2L264.4,446h-26.2L251.3,423.4z M278.9,423.4h26.2l13.1,22.7H292L278.9,423.4z M305.8,422.9
	l13.1-22.7l13.1,22.7l-13.1,22.7L305.8,422.9z M332.7,423.4h26.2L345.8,446h-26.2L332.7,423.4z M360.3,423.4h26.2l13.1,22.7h-26.2
	L360.3,423.4z M387.2,422.9l13.1-22.7l13.1,22.7l-13.1,22.7L387.2,422.9z M414.1,423.4h26.2L427.2,446H401L414.1,423.4z
	 M441.7,423.4h26.2l13.1,22.7h-26.2L441.7,423.4z M468.6,422.9l13.1-22.7l13.1,22.7l-13.1,22.7L468.6,422.9z M495.5,423.4h26.2
	L508.6,446h-26.2L495.5,423.4z M523.1,423.4h26.2l13.1,22.7h-26.2L523.1,423.4z M550,422.9l13.1-22.7l13.1,22.7L563,445.6L550,422.9
	z M576.8,423.4H603L589.9,446h-26.2L576.8,423.4z M590.7,399.5l13.1-22.7l13.1,22.7l-13.1,22.7L590.7,399.5z M590.7,352.5l13.1-22.7
	l13.1,22.7l-13.1,22.7L590.7,352.5z M590.7,305.5l13.1-22.7l13.1,22.7l-13.1,22.7L590.7,305.5z M590.7,258.5l13.1-22.7l13.1,22.7
	l-13.1,22.7L590.7,258.5z M590.7,211.5l13.1-22.7l13.1,22.7l-13.1,22.7L590.7,211.5z M590.7,164.5l13.1-22.7l13.1,22.7l-13.1,22.7
	L590.7,164.5z M590.7,117.5l13.1-22.7l13.1,22.7l-13.1,22.7L590.7,117.5z M590.7,70.5l13.1-22.7l13.1,22.7l-13.1,22.7L590.7,70.5z
	 M603.7,46.2l-13.1-22.7l13.1-22.7l13.1,22.7L603.7,46.2z M522.4,46.2l-13.1-22.7l13.1-22.7l13.1,22.7L522.4,46.2z M441,46.2
	l-13.1-22.7L441,0.9l13.1,22.7L441,46.2z M359.6,46.2l-13.1-22.7l13.1-22.7l13.1,22.7L359.6,46.2z M278.2,46.2l-13.1-22.7l13.1-22.7
	l13.1,22.7L278.2,46.2z M196.8,46.2l-13.1-22.7l13.1-22.7l13.1,22.7L196.8,46.2z M115.5,46.2l-13.1-22.7l13.1-22.7l13.1,22.7
	L115.5,46.2z M34.1,46.2L21,23.6L34.1,0.9l13.1,22.7L34.1,46.2z M-33.5,24h26.2l-13.1,22.7h-26.2L-33.5,24z M-20.4,47.5l13.1,22.7
	h-26.2l-13.1-22.7H-20.4z M-33.5,71h26.2l-13.1,22.7h-26.2L-33.5,71z M-20.4,94.5l13.1,22.7h-26.2l-13.1-22.7H-20.4z M-33.5,117.9
	h26.2l-13.1,22.7h-26.2L-33.5,117.9z M-20.4,141.4l13.1,22.7h-26.2l-13.1-22.7H-20.4z M-33.5,164.9h26.2l-13.1,22.7h-26.2
	L-33.5,164.9z M-20.4,188.4l13.1,22.7h-26.2l-13.1-22.7H-20.4z M-33.5,211.9h26.2l-13.1,22.7h-26.2L-33.5,211.9z M-20.4,235.4
	l13.1,22.7h-26.2l-13.1-22.7H-20.4z M-33.5,258.9h26.2l-13.1,22.7h-26.2L-33.5,258.9z M-20.4,282.4l13.1,22.7h-26.2l-13.1-22.7
	H-20.4z M-33.5,305.9h26.2l-13.1,22.7h-26.2L-33.5,305.9z M-20.4,329.4l13.1,22.7h-26.2l-13.1-22.7H-20.4z M-33.5,352.9h26.2
	l-13.1,22.7h-26.2L-33.5,352.9z M-20.4,376.4L-7.3,399h-26.2l-13.1-22.7H-20.4z M-33.5,399.9h26.2l-13.1,22.7h-26.2L-33.5,399.9z
	 M-20.4,423.4L-7.3,446h-26.2l-13.1-22.7H-20.4z M-5.9,446.9h26.2l13.1,22.7H7.2L-5.9,446.9z M21,446.4l13.1-22.7l13.1,22.7
	l-13.1,22.7L21,446.4z M75.5,446.9h26.2l13.1,22.7H88.6L75.5,446.9z M102.4,446.4l13.1-22.7l13.1,22.7l-13.1,22.7L102.4,446.4z
	 M156.9,446.9H183l13.1,22.7H170L156.9,446.9z M183.8,446.4l13.1-22.7l13.1,22.7l-13.1,22.7L183.8,446.4z M238.2,446.9h26.2
	l13.1,22.7h-26.2L238.2,446.9z M265.1,446.4l13.1-22.7l13.1,22.7l-13.1,22.7L265.1,446.4z M319.6,446.9h26.2l13.1,22.7h-26.2
	L319.6,446.9z M346.5,446.4l13.1-22.7l13.1,22.7l-13.1,22.7L346.5,446.4z M401,446.9h26.2l13.1,22.7h-26.2L401,446.9z M427.9,446.4
	l13.1-22.7l13.1,22.7L441,469.1L427.9,446.4z M482.4,446.9h26.2l13.1,22.7h-26.2L482.4,446.9z M509.3,446.4l13.1-22.7l13.1,22.7
	l-13.1,22.7L509.3,446.4z M563.8,446.9h26.2l13.1,22.7h-26.2L563.8,446.9z M590.7,446.4l13.1-22.7l13.1,22.7l-13.1,22.7L590.7,446.4
	z M604.5,47.5h26.2l13.1,22.7h-26.2L604.5,47.5z M604.5,46.6L617.5,24h26.2l-13.1,22.7H604.5z M617.5,23.1L604.5,0.5h26.2l13.1,22.7
	H617.5z M576.8-0.3L563.8-23h26.2L603-0.3H576.8z M576.1,0.1L563,22.7L550,0.1L563-22.6L576.1,0.1z M562.3,23.1h-26.2L523.1,0.5
	h26.2L562.3,23.1z M495.5-0.3L482.4-23h26.2l13.1,22.7H495.5z M494.8,0.1l-13.1,22.7L468.6,0.1l13.1-22.7L494.8,0.1z M480.9,23.1
	h-26.2L441.7,0.5h26.2L480.9,23.1z M414.1-0.3L401-23h26.2l13.1,22.7H414.1z M413.4,0.1l-13.1,22.7L387.2,0.1l13.1-22.7L413.4,0.1z
	 M399.6,23.1h-26.2L360.3,0.5h26.2L399.6,23.1z M332.7-0.3L319.6-23h26.2l13.1,22.7H332.7z M332,0.1l-13.1,22.7L305.8,0.1l13.1-22.7
	L332,0.1z M318.2,23.1H292L278.9,0.5h26.2L318.2,23.1z M251.3-0.3L238.2-23h26.2l13.1,22.7H251.3z M250.6,0.1l-13.1,22.7L224.4,0.1
	l13.1-22.7L250.6,0.1z M236.8,23.1h-26.2L197.6,0.5h26.2L236.8,23.1z M170-0.3L156.9-23H183l13.1,22.7H170z M169.2,0.1l-13.1,22.7
	L143.1,0.1l13.1-22.7L169.2,0.1z M155.4,23.1h-26.2L116.2,0.5h26.2L155.4,23.1z M88.6-0.3L75.5-23h26.2l13.1,22.7H88.6z M87.9,0.1
	L74.8,22.7L61.7,0.1l13.1-22.7L87.9,0.1z M74.1,23.1H47.9L34.8,0.5H61L74.1,23.1z M7.2-0.3L-5.9-23h26.2L33.4-0.3H7.2z M6.5,0.1
	L-6.6,22.7L-19.7,0.1l13.1-22.7L6.5,0.1z M-7.3,23.1h-26.2L-46.6,0.5h26.2L-7.3,23.1z M-34.2,23.6l-13.1,22.7l-13.1-22.7l13.1-22.7
	L-34.2,23.6z M-34.2,70.5l-13.1,22.7l-13.1-22.7l13.1-22.7L-34.2,70.5z M-34.2,117.5l-13.1,22.7l-13.1-22.7l13.1-22.7L-34.2,117.5z
	 M-34.2,164.5l-13.1,22.7l-13.1-22.7l13.1-22.7L-34.2,164.5z M-34.2,211.5l-13.1,22.7l-13.1-22.7l13.1-22.7L-34.2,211.5z
	 M-34.2,258.5l-13.1,22.7l-13.1-22.7l13.1-22.7L-34.2,258.5z M-34.2,305.5l-13.1,22.7l-13.1-22.7l13.1-22.7L-34.2,305.5z
	 M-34.2,352.5l-13.1,22.7l-13.1-22.7l13.1-22.7L-34.2,352.5z M-34.2,399.5l-13.1,22.7l-13.1-22.7l13.1-22.7L-34.2,399.5z
	 M-34.2,446.4l-13.1,22.7l-13.1-22.7l13.1-22.7L-34.2,446.4z M-33.5,446.9h26.2l-13.1,22.7h-26.2L-33.5,446.9z M-6.6,447.3
	l13.1,22.7l-13.1,22.7l-13.1-22.7L-6.6,447.3z M7.2,470.3h26.2L20.3,493H-5.9L7.2,470.3z M47.9,446.9h26.2L61,469.5H34.8L47.9,446.9
	z M74.8,447.3l13.1,22.7l-13.1,22.7l-13.1-22.7L74.8,447.3z M88.6,470.3h26.2L101.7,493H75.5L88.6,470.3z M129.3,446.9h26.2
	l-13.1,22.7h-26.2L129.3,446.9z M156.1,447.3l13.1,22.7l-13.1,22.7l-13.1-22.7L156.1,447.3z M170,470.3h26.2L183,493h-26.2
	L170,470.3z M210.6,446.9h26.2l-13.1,22.7h-26.2L210.6,446.9z M237.5,447.3l13.1,22.7l-13.1,22.7l-13.1-22.7L237.5,447.3z
	 M251.3,470.3h26.2L264.4,493h-26.2L251.3,470.3z M292,446.9h26.2l-13.1,22.7h-26.2L292,446.9z M318.9,447.3l13.1,22.7l-13.1,22.7
	l-13.1-22.7L318.9,447.3z M332.7,470.3h26.2L345.8,493h-26.2L332.7,470.3z M373.4,446.9h26.2l-13.1,22.7h-26.2L373.4,446.9z
	 M400.3,447.3l13.1,22.7l-13.1,22.7l-13.1-22.7L400.3,447.3z M414.1,470.3h26.2L427.2,493H401L414.1,470.3z M454.8,446.9h26.2
	l-13.1,22.7h-26.2L454.8,446.9z M481.7,447.3l13.1,22.7l-13.1,22.7l-13.1-22.7L481.7,447.3z M495.5,470.3h26.2L508.6,493h-26.2
	L495.5,470.3z M536.2,446.9h26.2l-13.1,22.7h-26.2L536.2,446.9z M563,447.3l13.1,22.7L563,492.6L550,469.9L563,447.3z M576.8,470.3
	H603L589.9,493h-26.2L576.8,470.3z M617.5,446.9h26.2l-13.1,22.7h-26.2L617.5,446.9z M617.5,446l-13.1-22.7h26.2l13.1,22.7H617.5z
	 M604.5,422.5l13.1-22.7h26.2l-13.1,22.7H604.5z M617.5,399l-13.1-22.7h26.2l13.1,22.7H617.5z M604.5,375.5l13.1-22.7h26.2
	l-13.1,22.7H604.5z M617.5,352.1l-13.1-22.7h26.2l13.1,22.7H617.5z M604.5,328.6l13.1-22.7h26.2l-13.1,22.7H604.5z M617.5,305.1
	l-13.1-22.7h26.2l13.1,22.7H617.5z M604.5,281.6l13.1-22.7h26.2l-13.1,22.7H604.5z M617.5,258.1l-13.1-22.7h26.2l13.1,22.7H617.5z
	 M604.5,234.6l13.1-22.7h26.2l-13.1,22.7H604.5z M617.5,211.1l-13.1-22.7h26.2l13.1,22.7H617.5z M604.5,187.6l13.1-22.7h26.2
	l-13.1,22.7H604.5z M617.5,164.1l-13.1-22.7h26.2l13.1,22.7H617.5z M604.5,140.6l13.1-22.7h26.2l-13.1,22.7H604.5z M617.5,117.1
	l-13.1-22.7h26.2l13.1,22.7H617.5z M604.5,93.6L617.5,71h26.2l-13.1,22.7H604.5z M631.3,47.1l13.1-22.7l13.1,22.7l-13.1,22.7
	L631.3,47.1z M657.5,0.1l-13.1,22.7L631.3,0.1l13.1-22.7L657.5,0.1z M630.6-0.3h-26.2L617.5-23h26.2L630.6-0.3z M616.8-23.4
	L603.7-0.8l-13.1-22.7l13.1-22.7L616.8-23.4z M576.8-46.5H603l-13.1,22.7h-26.2L576.8-46.5z M549.2-0.3h-26.2L536.2-23h26.2
	L549.2-0.3z M535.4-23.4L522.4-0.8l-13.1-22.7l13.1-22.7L535.4-23.4z M495.5-46.5h26.2l-13.1,22.7h-26.2L495.5-46.5z M467.9-0.3
	h-26.2L454.8-23h26.2L467.9-0.3z M454.1-23.4L441-0.8l-13.1-22.7L441-46.1L454.1-23.4z M414.1-46.5h26.2l-13.1,22.7H401L414.1-46.5z
	 M386.5-0.3h-26.2L373.4-23h26.2L386.5-0.3z M372.7-23.4L359.6-0.8l-13.1-22.7l13.1-22.7L372.7-23.4z M332.7-46.5h26.2l-13.1,22.7
	h-26.2L332.7-46.5z M305.1-0.3h-26.2L292-23h26.2L305.1-0.3z M291.3-23.4L278.2-0.8l-13.1-22.7l13.1-22.7L291.3-23.4z M251.3-46.5
	h26.2l-13.1,22.7h-26.2L251.3-46.5z M223.7-0.3h-26.2L210.6-23h26.2L223.7-0.3z M209.9-23.4L196.8-0.8l-13.1-22.7l13.1-22.7
	L209.9-23.4z M170-46.5h26.2L183-23.8h-26.2L170-46.5z M142.3-0.3h-26.2L129.3-23h26.2L142.3-0.3z M128.5-23.4L115.5-0.8l-13.1-22.7
	l13.1-22.7L128.5-23.4z M88.6-46.5h26.2l-13.1,22.7H75.5L88.6-46.5z M61-0.3H34.8L47.9-23h26.2L61-0.3z M47.2-23.4L34.1-0.8L21-23.4
	l13.1-22.7L47.2-23.4z M7.2-46.5h26.2L20.3-23.8H-5.9L7.2-46.5z M-20.4-0.3h-26.2L-33.5-23h26.2L-20.4-0.3z M-34.2-23.4L-47.3-0.8
	l-13.1-22.7l13.1-22.7L-34.2-23.4z M-74.2-46.5H-48l-13.1,22.7h-26.2L-74.2-46.5z M-61.1-23L-48-0.3h-26.2L-87.3-23H-61.1z
	 M-74.2,0.5H-48l-13.1,22.7h-26.2L-74.2,0.5z M-61.1,24L-48,46.6h-26.2L-87.3,24H-61.1z M-74.2,47.5H-48l-13.1,22.7h-26.2
	L-74.2,47.5z M-61.1,71L-48,93.6h-26.2L-87.3,71H-61.1z M-74.2,94.5H-48l-13.1,22.7h-26.2L-74.2,94.5z M-61.1,117.9l13.1,22.7h-26.2
	l-13.1-22.7H-61.1z M-74.2,141.4H-48l-13.1,22.7h-26.2L-74.2,141.4z M-61.1,164.9l13.1,22.7h-26.2l-13.1-22.7H-61.1z M-74.2,188.4
	H-48l-13.1,22.7h-26.2L-74.2,188.4z M-61.1,211.9l13.1,22.7h-26.2l-13.1-22.7H-61.1z M-74.2,235.4H-48l-13.1,22.7h-26.2L-74.2,235.4
	z M-61.1,258.9l13.1,22.7h-26.2l-13.1-22.7H-61.1z M-74.2,282.4H-48l-13.1,22.7h-26.2L-74.2,282.4z M-61.1,305.9l13.1,22.7h-26.2
	l-13.1-22.7H-61.1z M-74.2,329.4H-48l-13.1,22.7h-26.2L-74.2,329.4z M-61.1,352.9l13.1,22.7h-26.2l-13.1-22.7H-61.1z M-74.2,376.4
	H-48L-61.1,399h-26.2L-74.2,376.4z M-61.1,399.9l13.1,22.7h-26.2l-13.1-22.7H-61.1z M-74.2,423.4H-48L-61.1,446h-26.2L-74.2,423.4z
	 M-61.1,446.9l13.1,22.7h-26.2l-13.1-22.7H-61.1z M-74.2,470.3H-48L-61.1,493h-26.2L-74.2,470.3z M-74.2,516.5l-13.1-22.7h26.2
	l13.1,22.7H-74.2z M-47.3,516.1l-13.1-22.7l13.1-22.7l13.1,22.7L-47.3,516.1z M-33.5,493l-13.1-22.7h26.2L-7.3,493H-33.5z
	 M7.2,516.5l-13.1-22.7h26.2l13.1,22.7H7.2z M34.1,516.1L21,493.4l13.1-22.7l13.1,22.7L34.1,516.1z M47.9,493l-13.1-22.7H61
	L74.1,493H47.9z M88.6,516.5l-13.1-22.7h26.2l13.1,22.7H88.6z M115.5,516.1l-13.1-22.7l13.1-22.7l13.1,22.7L115.5,516.1z M129.3,493
	l-13.1-22.7h26.2l13.1,22.7H129.3z M170,516.5l-13.1-22.7H183l13.1,22.7H170z M196.8,516.1l-13.1-22.7l13.1-22.7l13.1,22.7
	L196.8,516.1z M210.6,493l-13.1-22.7h26.2l13.1,22.7H210.6z M251.3,516.5l-13.1-22.7h26.2l13.1,22.7H251.3z M278.2,516.1l-13.1-22.7
	l13.1-22.7l13.1,22.7L278.2,516.1z M292,493l-13.1-22.7h26.2l13.1,22.7H292z M332.7,516.5l-13.1-22.7h26.2l13.1,22.7H332.7z
	 M359.6,516.1l-13.1-22.7l13.1-22.7l13.1,22.7L359.6,516.1z M373.4,493l-13.1-22.7h26.2l13.1,22.7H373.4z M414.1,516.5L401,493.8
	h26.2l13.1,22.7H414.1z M441,516.1l-13.1-22.7l13.1-22.7l13.1,22.7L441,516.1z M454.8,493l-13.1-22.7h26.2l13.1,22.7H454.8z
	 M495.5,516.5l-13.1-22.7h26.2l13.1,22.7H495.5z M522.4,516.1l-13.1-22.7l13.1-22.7l13.1,22.7L522.4,516.1z M536.2,493l-13.1-22.7
	h26.2l13.1,22.7H536.2z M576.8,516.5l-13.1-22.7h26.2l13.1,22.7H576.8z M603.7,516.1l-13.1-22.7l13.1-22.7l13.1,22.7L603.7,516.1z
	 M617.5,493l-13.1-22.7h26.2l13.1,22.7H617.5z M644.4,492.6l-13.1-22.7l13.1-22.7l13.1,22.7L644.4,492.6z M644.4,445.6l-13.1-22.7
	l13.1-22.7l13.1,22.7L644.4,445.6z M644.4,398.6L631.3,376l13.1-22.7l13.1,22.7L644.4,398.6z M644.4,351.6L631.3,329l13.1-22.7
	l13.1,22.7L644.4,351.6z M644.4,304.6L631.3,282l13.1-22.7l13.1,22.7L644.4,304.6z M644.4,257.7L631.3,235l13.1-22.7l13.1,22.7
	L644.4,257.7z M644.4,210.7L631.3,188l13.1-22.7l13.1,22.7L644.4,210.7z M644.4,163.7L631.3,141l13.1-22.7l13.1,22.7L644.4,163.7z
	 M644.4,116.7L631.3,94l13.1-22.7L657.5,94L644.4,116.7z"/>
</svg>
