<svg width="570" height="470" viewBox="0 0 570 470" fill="none" xmlns="http://www.w3.org/2000/svg">
<!--<g clip-path="url(#clip0_72_40)">-->
<path class="hexBackground" d="M644.9 23.6L658.5 0.0999489L644.7 -23.8H617.6L604 -47.3H576.4L562.8 -23.8H536.2L522.6 -47.3H495L481.4 -23.8H454.8L441.2 -47.3H413.6L400 -23.8H373.4L359.8 -47.3H332.2L318.6 -23.8H292L278.4 -47.3H250.8L237.2 -23.8H210.6L197 -47.3H169.4L155.8 -23.8H129.2L115.6 -47.3H88.1L74.5 -23.8H47.9L34.3 -47.3H6.7L-6.8 -23.8H-33.4L-47 -47.3H-74.6L-88.4 -23.4L-74.8 0.0999489L-88.4 23.6L-74.8 47.0999L-88.4 70.5999L-74.9 94L-88.5 117.5L-74.9 141L-88.5 164.5L-74.9 188L-88.5 211.5L-74.9 235L-88.5 258.5L-74.9 282L-88.5 305.5L-74.9 329L-88.5 352.5L-74.9 376L-88.5 399.5L-74.9 423L-88.5 446.5L-74.9 470L-88.5 493.5L-74.7 517.4H-47.1L-33.5 493.9H-6.9L6.7 517.4H34.3L47.9 493.9H74.5L88.1 517.4H115.7L129.3 493.9H155.9L169.5 517.4H197.1L210.7 493.9H237.3L250.9 517.4H278.5L292.1 493.9H318.7L332.3 517.4H359.9L373.5 493.9H400L413.6 517.4H441.2L454.8 493.9H481.4L495 517.4H522.6L536.2 493.9H562.8L576.4 517.4H604L617.6 493.9H644.7L658.5 470L644.9 446.5L658.5 423L644.9 399.5L658.5 376L644.9 352.5L658.5 329L644.9 305.5L658.5 282L644.9 258.5L658.5 235L644.9 211.5L658.5 188L644.9 164.5L658.5 141L644.9 117.5L658.5 94L644.9 70.5L658.5 47L644.9 23.6ZM7.2 0.49995H33.4L20.3 23.1H-5.9L7.2 0.49995ZM88.6 0.49995H114.8L101.7 23.2H75.5L88.6 0.49995ZM170 0.49995H196.2L183 23.1H156.8L170 0.49995ZM251.3 0.49995H277.5L264.4 23.2H238.2L251.3 0.49995ZM332.7 0.49995H358.9L345.8 23.2H319.6L332.7 0.49995ZM414.1 0.49995H440.3L427.2 23.2H401L414.1 0.49995ZM495.5 0.49995H521.7L508.6 23.2H482.4L495.5 0.49995ZM576.8 0.49995H603L589.9 23.2H563.7L576.8 0.49995ZM7.2 47.5H33.4L20.3 70.0999H-5.9L7.2 47.5ZM88.6 47.5H114.8L101.7 70.2H75.5L88.6 47.5ZM170 47.5H196.2L183 70.0999H156.8L170 47.5ZM251.3 47.5H277.5L264.4 70.2H238.2L251.3 47.5ZM332.7 47.5H358.9L345.8 70.2H319.6L332.7 47.5ZM414.1 47.5H440.3L427.2 70.2H401L414.1 47.5ZM495.5 47.5H521.7L508.6 70.2H482.4L495.5 47.5ZM88.6 94.5H114.8L101.7 117.2H75.5L88.6 94.5ZM170 94.5H196.2L183 117.1H156.8L170 94.5ZM251.3 94.5H277.5L264.4 117.2H238.2L251.3 94.5ZM332.7 94.5H358.9L345.8 117.2H319.6L332.7 94.5ZM414.1 94.5H440.3L427.2 117.2H401L414.1 94.5ZM495.5 94.5H521.7L508.6 117.2H482.4L495.5 94.5ZM88.6 141.4H114.8L101.7 164.1H75.5L88.6 141.4ZM170 141.4H196.2L183 164.1H156.8L170 141.4ZM251.3 141.4H277.5L264.4 164.1H238.2L251.3 141.4ZM332.7 141.4H358.9L345.8 164.1H319.6L332.7 141.4ZM414.1 141.4H440.3L427.2 164.1H401L414.1 141.4ZM495.5 141.4H521.7L508.6 164.1H482.4L495.5 141.4ZM170 188.4H196.2L183 211.1H156.8L170 188.4ZM251.3 188.4H277.5L264.4 211.1H238.2L251.3 188.4ZM332.7 188.4H358.9L345.8 211.1H319.6L332.7 188.4ZM414.1 188.4H440.3L427.2 211.1H401L414.1 188.4ZM210.6 211.9H236.8L223.7 234.6H197.5L210.6 211.9ZM170 234.6L156.9 211.9H183L196.1 234.6H170ZM169.2 235L156.1 257.7L143.1 235L156.2 212.3L169.2 235ZM170 235.4H196.2L183 258.1H156.8L170 235.4ZM197.6 235.4H223.8L236.9 258.1H210.7L197.6 235.4ZM224.4 235L237.5 212.3L250.6 235L237.5 257.7L224.4 235ZM292 211.9H318.2L305.1 234.6H278.9L292 211.9ZM251.3 234.6L238.2 211.9H264.4L277.5 234.6H251.3ZM251.3 235.4H277.5L264.4 258.1H238.2L251.3 235.4ZM278.9 235.4H305.1L318.2 258.1H292L278.9 235.4ZM305.8 235L318.9 212.3L332 235L318.9 257.7L305.8 235ZM373.4 211.9H399.6L386.5 234.6H360.3L373.4 211.9ZM332.7 234.6L319.6 211.9H345.8L358.9 234.6H332.7ZM332.7 235.4H358.9L345.8 258.1H319.6L332.7 235.4ZM360.3 235.4H386.5L399.6 258.1H373.4L360.3 235.4ZM387.2 235L400.3 212.3L413.4 235L400.3 257.7L387.2 235ZM454.8 211.9H481L467.9 234.6H441.7L454.8 211.9ZM414.1 234.6L401 211.9H427.2L440.3 234.6H414.1ZM414.1 235.4H440.3L427.2 258.1H401L414.1 235.4ZM441.7 235.4H467.9L481 258.1H454.8L441.7 235.4ZM468.6 235L481.7 212.3L494.8 235L481.7 257.7L468.6 235ZM454.1 211.5L441 234.2L427.9 211.5L441 188.8L454.1 211.5ZM372.7 211.5L359.6 234.2L346.5 211.5L359.6 188.8L372.7 211.5ZM291.3 211.5L278.2 234.2L265.1 211.5L278.2 188.8L291.3 211.5ZM209.9 211.5L196.8 234.2L183.7 211.5L196.8 188.8L209.9 211.5ZM129.3 211.9H155.5L142.4 234.6H116.2L129.3 211.9ZM142.3 235.4L155.4 258.1H129.2L116.1 235.4H142.3V235.4ZM156.9 258.9H183L196.1 281.6H170L156.9 258.9ZM183.8 258.5L196.9 235.8L210 258.5L196.9 281.2L183.8 258.5ZM238.2 258.9H264.4L277.5 281.6H251.3L238.2 258.9ZM265.1 258.5L278.2 235.8L291.3 258.5L278.2 281.2L265.1 258.5ZM319.6 258.9H345.8L358.9 281.6H332.7L319.6 258.9ZM346.5 258.5L359.6 235.8L372.7 258.5L359.6 281.2L346.5 258.5ZM401 258.9H427.2L440.3 281.6H414.1L401 258.9ZM427.9 258.5L441 235.8L454.1 258.5L441 281.2L427.9 258.5ZM454.8 211.1L441.7 188.4H467.9L481 211.1H454.8ZM373.4 211.1L360.3 188.4H386.5L399.6 211.1H373.4ZM292 211.1L278.9 188.4H305.1L318.2 211.1H292ZM210.6 211.1L197.5 188.4H223.7L236.8 211.1H210.6ZM129.3 211.1L116.2 188.4H142.4L155.5 211.1H129.3ZM129.3 258.9H155.5L142.4 281.6H116.2L129.3 258.9ZM210.6 258.9H236.8L223.7 281.6H197.5L210.6 258.9ZM292 258.9H318.2L305.1 281.6H278.9L292 258.9ZM373.4 258.9H399.6L386.5 281.6H360.3L373.4 258.9ZM454.8 258.9H481L467.9 281.6H441.7L454.8 258.9ZM494.8 188L481.7 210.7L468.6 188L481.7 165.3L494.8 188ZM467.9 187.6H441.7L454.8 164.9H481L467.9 187.6ZM414.1 187.6L401 164.9H427.2L440.3 187.6H414.1ZM413.4 188L400.3 210.7L387.2 188L400.3 165.3L413.4 188ZM386.5 187.6H360.3L373.4 164.9H399.6L386.5 187.6ZM332.7 187.6L319.6 164.9H345.8L358.9 187.6H332.7ZM332 188L318.9 210.7L305.8 188L318.9 165.3L332 188ZM305.1 187.6H278.9L292 164.9H318.2L305.1 187.6ZM251.3 187.6L238.2 164.9H264.4L277.5 187.6H251.3ZM250.6 188L237.5 210.7L224.4 188L237.5 165.3L250.6 188ZM223.7 187.6H197.5L210.6 164.9H236.8L223.7 187.6ZM170 187.6L156.9 164.9H183L196.1 187.6H170ZM169.2 188L156.1 210.7L143.1 188L156.2 165.3L169.2 188ZM142.3 187.6H116.1L129.2 164.9H155.4L142.3 187.6ZM128.5 211.5L115.4 234.2L102.3 211.5L115.4 188.8L128.5 211.5ZM128.5 258.5L115.4 281.2L102.3 258.5L115.4 235.8L128.5 258.5ZM116.2 282.4H142.4L155.5 305.1H129.3L116.2 282.4ZM143.1 282L156.2 259.3L169.3 282L156.2 304.7L143.1 282ZM170 282.4H196.2L183 305.1H156.8L170 282.4ZM197.6 282.4H223.8L236.9 305.1H210.7L197.6 282.4ZM224.4 282L237.5 259.3L250.6 282L237.5 304.7L224.4 282ZM251.3 282.4H277.5L264.4 305.1H238.2L251.3 282.4ZM278.9 282.4H305.1L318.2 305.1H292L278.9 282.4ZM305.8 282L318.9 259.3L332 282L318.9 304.7L305.8 282ZM332.7 282.4H358.9L345.8 305.1H319.6L332.7 282.4ZM360.3 282.4H386.5L399.6 305.1H373.4L360.3 282.4ZM387.2 282L400.3 259.3L413.4 282L400.3 304.7L387.2 282ZM414.1 282.4H440.3L427.2 305.1H401L414.1 282.4ZM441.7 282.4H467.9L481 305.1H454.8L441.7 282.4ZM468.6 282L481.7 259.3L494.8 282L481.7 304.7L468.6 282ZM495.5 282.4H521.7L508.6 305.1H482.4L495.5 282.4ZM495.5 281.6L482.4 258.9H508.6L521.7 281.6H495.5ZM482.4 258.1L495.5 235.4H521.7L508.6 258.1H482.4ZM495.5 234.6L482.4 211.9H508.6L521.7 234.6H495.5ZM482.4 211.1L495.5 188.4H521.7L508.6 211.1H482.4ZM495.5 187.6L482.4 164.9H508.6L521.7 187.6H495.5ZM454.1 164.5L441 187.2L427.9 164.5L441 141.8L454.1 164.5ZM372.7 164.5L359.6 187.2L346.5 164.5L359.6 141.8L372.7 164.5ZM291.3 164.5L278.2 187.2L265.1 164.5L278.2 141.8L291.3 164.5ZM209.9 164.5L196.8 187.2L183.7 164.5L196.8 141.8L209.9 164.5ZM128.5 164.5L115.4 187.2L102.3 164.5L115.4 141.8L128.5 164.5ZM101.7 164.9L114.8 187.6H88.6L75.5 164.9H101.7ZM88.6 188.4H114.8L101.7 211.1H75.5L88.6 188.4ZM101.7 211.9L114.8 234.6H88.6L75.5 211.9H101.7ZM88.6 235.4H114.8L101.7 258.1H75.5L88.6 235.4ZM101.7 258.9L114.8 281.6H88.6L75.5 258.9H101.7ZM88.6 282.4H114.8L101.7 305.1H75.5L88.6 282.4ZM75.5 305.9H101.7L114.8 328.6H88.6L75.5 305.9ZM102.4 305.5L115.5 282.8L128.6 305.5L115.5 328.2L102.4 305.5ZM156.9 305.9H183L196.1 328.6H170L156.9 305.9ZM183.8 305.5L196.9 282.8L210 305.5L196.9 328.2L183.8 305.5ZM238.2 305.9H264.4L277.5 328.6H251.3L238.2 305.9ZM265.1 305.5L278.2 282.8L291.3 305.5L278.2 328.2L265.1 305.5ZM319.6 305.9H345.8L358.9 328.6H332.7L319.6 305.9ZM346.5 305.5L359.6 282.8L372.7 305.5L359.6 328.2L346.5 305.5ZM401 305.9H427.2L440.3 328.6H414.1L401 305.9ZM427.9 305.5L441 282.8L454.1 305.5L441 328.1L427.9 305.5ZM482.4 305.9H508.6L521.7 328.6H495.5L482.4 305.9ZM509.3 305.5L522.4 282.8L535.5 305.5L522.4 328.2L509.3 305.5ZM509.3 258.5L522.4 235.8L535.5 258.5L522.4 281.2L509.3 258.5ZM509.3 211.5L522.4 188.8L535.5 211.5L522.4 234.2L509.3 211.5ZM509.3 164.5L522.4 141.8L535.5 164.5L522.4 187.2L509.3 164.5ZM454.8 164.1L441.7 141.4H467.9L481 164.1H454.8ZM373.4 164.1L360.3 141.4H386.5L399.6 164.1H373.4ZM292 164.1L278.9 141.4H305.1L318.2 164.1H292ZM210.6 164.1L197.5 141.4H223.7L236.8 164.1H210.6ZM129.3 164.1L116.2 141.4H142.4L155.5 164.1H129.3ZM129.3 305.9H155.5L142.4 328.6H116.2L129.3 305.9ZM210.6 305.9H236.8L223.7 328.6H197.5L210.6 305.9ZM292 305.9H318.2L305.1 328.6H278.9L292 305.9ZM373.4 305.9H399.6L386.5 328.6H360.3L373.4 305.9ZM454.8 305.9H481L467.9 328.6H441.7L454.8 305.9ZM495.5 140.6L482.4 117.9H508.6L521.7 140.6H495.5ZM494.8 141L481.7 163.7L468.6 141L481.7 118.3L494.8 141ZM467.9 140.6H441.7L454.8 117.9H481L467.9 140.6ZM414.1 140.6L401 117.9H427.2L440.3 140.6H414.1ZM413.4 141L400.3 163.7L387.2 141L400.3 118.3L413.4 141ZM386.5 140.6H360.3L373.4 117.9H399.6L386.5 140.6ZM332.7 140.6L319.6 117.9H345.8L358.9 140.6H332.7ZM332 141L318.9 163.7L305.8 141L318.9 118.3L332 141ZM305.1 140.6H278.9L292 117.9H318.2L305.1 140.6ZM251.3 140.6L238.2 117.9H264.4L277.5 140.6H251.3ZM250.6 141L237.5 163.7L224.4 141L237.5 118.3L250.6 141ZM223.7 140.6H197.5L210.6 117.9H236.8L223.7 140.6ZM170 140.6L156.9 117.9H183L196.1 140.6H170ZM169.2 141L156.1 163.7L143.1 141L156.2 118.3L169.2 141ZM142.3 140.6H116.1L129.2 117.9H155.4L142.3 140.6ZM88.6 140.6L75.5 117.9H101.7L114.8 140.6H88.6ZM87.9 141L74.8 163.7L61.7 141L74.8 118.3L87.9 141ZM87.9 188L74.8 210.7L61.7 188L74.8 165.3L87.9 188ZM87.9 235L74.8 257.7L61.7 235L74.8 212.3L87.9 235ZM87.9 282L74.8 304.7L61.7 282L74.8 259.3L87.9 282ZM87.9 329L74.8 351.7L61.7 329L74.8 306.3L87.9 329ZM88.6 329.4H114.8L101.7 352.1H75.5L88.6 329.4ZM116.2 329.4H142.4L155.5 352.1H129.3L116.2 329.4ZM143.1 329L156.2 306.3L169.3 329L156.2 351.7L143.1 329ZM170 329.4H196.2L183 352.1H156.8L170 329.4ZM197.6 329.4H223.8L236.9 352.1H210.7L197.6 329.4ZM224.4 329L237.5 306.3L250.6 329L237.5 351.7L224.4 329ZM251.3 329.4H277.5L264.4 352.1H238.2L251.3 329.4ZM278.9 329.4H305.1L318.2 352.1H292L278.9 329.4ZM305.8 329L318.9 306.3L332 329L318.9 351.7L305.8 329ZM332.7 329.4H358.9L345.8 352.1H319.6L332.7 329.4ZM360.3 329.4H386.5L399.6 352.1H373.4L360.3 329.4ZM387.2 329L400.3 306.3L413.4 329L400.3 351.7L387.2 329ZM414.1 329.4H440.3L427.2 352.1H401L414.1 329.4ZM441.7 329.4H467.9L481 352.1H454.8L441.7 329.4ZM468.6 329L481.7 306.3L494.8 329L481.7 351.7L468.6 329ZM495.5 329.4H521.7L508.6 352.1H482.4L495.5 329.4ZM535.4 117.5L522.3 140.2L509.2 117.5L522.3 94.8L535.4 117.5ZM454.1 117.5L441 140.2L427.9 117.5L441 94.8999L454.1 117.5ZM372.7 117.5L359.6 140.2L346.5 117.5L359.6 94.8L372.7 117.5ZM291.3 117.5L278.2 140.2L265.1 117.5L278.2 94.8L291.3 117.5ZM209.9 117.5L196.8 140.2L183.7 117.5L196.8 94.8L209.9 117.5ZM128.5 117.5L115.4 140.2L102.3 117.5L115.4 94.8L128.5 117.5ZM47.9 117.9H74.1L61 140.6H34.8L47.9 117.9ZM61 141.4L74.1 164.1H47.9L34.8 141.4H61ZM47.9 164.9H74.1L61 187.6H34.8L47.9 164.9ZM61 188.4L74.1 211.1H47.9L34.8 188.4H61ZM47.9 211.9H74.1L61 234.6H34.8L47.9 211.9ZM61 235.4L74.1 258.1H47.9L34.8 235.4H61V235.4ZM47.9 258.9H74.1L61 281.6H34.8L47.9 258.9ZM61 282.4L74.1 305.1H47.9L34.8 282.4H61ZM47.9 305.9H74.1L61 328.6H34.8L47.9 305.9ZM61 329.4L74.1 352.1H47.9L34.8 329.4H61ZM75.5 352.9H101.7L114.8 375.6H88.6L75.5 352.9ZM102.4 352.5L115.5 329.8L128.6 352.5L115.5 375.2L102.4 352.5ZM156.9 352.9H183L196.1 375.6H170L156.9 352.9ZM183.8 352.5L196.9 329.8L210 352.5L196.9 375.2L183.8 352.5ZM238.2 352.9H264.4L277.5 375.6H251.3L238.2 352.9ZM265.1 352.5L278.2 329.8L291.3 352.5L278.2 375.2L265.1 352.5ZM319.6 352.9H345.8L358.9 375.6H332.7L319.6 352.9ZM346.5 352.5L359.6 329.8L372.7 352.5L359.6 375.2L346.5 352.5ZM401 352.9H427.2L440.3 375.6H414.1L401 352.9ZM427.9 352.5L441 329.8L454.1 352.5L441 375.1L427.9 352.5ZM482.4 352.9H508.6L521.7 375.6H495.5L482.4 352.9ZM509.3 352.5L522.4 329.8L535.5 352.5L522.4 375.2L509.3 352.5ZM536.2 352.1L523.1 329.4H549.3L562.4 352.1H536.2ZM523.1 328.6L536.2 305.9H562.4L549.3 328.6H523.1ZM536.2 305.1L523.1 282.4H549.3L562.4 305.1H536.2ZM523.1 281.6L536.2 258.9H562.4L549.3 281.6H523.1ZM536.2 258.1L523.1 235.4H549.3L562.4 258.1H536.2ZM523.1 234.6L536.2 211.9H562.4L549.3 234.6H523.1ZM536.2 211.1L523.1 188.4H549.3L562.4 211.1H536.2ZM523.1 187.6L536.2 164.9H562.4L549.3 187.6H523.1ZM536.2 164.1L523.1 141.4H549.3L562.4 164.1H536.2ZM523.1 140.6L536.2 117.9H562.4L549.3 140.6H523.1ZM536.2 117.1L523.1 94.3999H549.3L562.4 117.1H536.2ZM454.8 117.1L441.7 94.3999H467.9L481 117.1H454.8ZM373.4 117.1L360.3 94.3999H386.5L399.6 117.1H373.4ZM292 117.1L278.9 94.3999H305.1L318.2 117.1H292ZM210.6 117.1L197.5 94.3999H223.7L236.8 117.1H210.6ZM129.3 117.1L116.2 94.3999H142.4L155.5 117.1H129.3ZM47.9 117.1L34.8 94.5H61L74.1 117.2H47.9V117.1ZM47.9 352.9H74.1L61 375.5H34.8L47.9 352.9ZM129.3 352.9H155.5L142.4 375.6H116.2L129.3 352.9ZM210.6 352.9H236.8L223.7 375.6H197.5L210.6 352.9ZM292 352.9H318.2L305.1 375.6H278.9L292 352.9ZM373.4 352.9H399.6L386.5 375.6H360.3L373.4 352.9ZM454.8 352.9H481L467.9 375.6H441.7L454.8 352.9ZM536.2 352.9H562.4L549.3 375.6H523.1L536.2 352.9ZM550 329L563.1 306.3L576.2 329L563 351.6L550 329ZM550 282L563.1 259.3L576.2 282L563 304.6L550 282ZM550 235L563.1 212.3L576.2 235L563 257.7L550 235ZM550 188L563.1 165.3L576.2 188L563 210.7L550 188ZM550 141L563.1 118.3L576.2 141L563 163.7L550 141ZM550 94L563 71.3999L576.1 94L563 116.7L550 94ZM549.2 93.5999H523L536.2 71H562.4L549.2 93.5999ZM495.5 93.5999L482.4 71H508.6L521.7 93.7H495.5V93.5999ZM494.8 94L481.7 116.7L468.6 94L481.7 71.3L494.8 94ZM467.9 93.5999H441.7L454.8 71H481L467.9 93.5999ZM414.1 93.5999L401 71H427.2L440.3 93.7H414.1V93.5999ZM413.4 94L400.3 116.7L387.2 94L400.3 71.3L413.4 94ZM386.5 93.5999H360.3L373.4 71H399.6L386.5 93.5999ZM332.7 93.5999L319.6 71H345.8L358.9 93.7H332.7V93.5999ZM332 94L318.9 116.7L305.8 94L318.9 71.3L332 94ZM305.1 93.5999H278.9L292 71H318.2L305.1 93.5999ZM251.3 93.5999L238.2 71H264.4L277.5 93.7H251.3V93.5999ZM250.6 94L237.5 116.7L224.4 94L237.5 71.3L250.6 94ZM223.7 93.5999H197.5L210.6 71H236.8L223.7 93.5999ZM170 93.5999L156.9 71H183L196.1 93.7H170V93.5999ZM169.2 94L156.1 116.7L143.1 94L156.2 71.3L169.2 94ZM142.3 93.5999H116.1L129.3 71H155.5L142.3 93.5999ZM88.6 93.5999L75.5 71H101.7L114.8 93.7H88.6V93.5999ZM87.9 94L74.8 116.7L61.7 94L74.8 71.3L87.9 94ZM61 93.5999H34.8L47.9 71H74.1L61 93.5999ZM47.2 117.5L34.1 140.2L21 117.5L34.1 94.8L47.2 117.5ZM47.2 164.5L34.1 187.2L21 164.5L34.1 141.8L47.2 164.5ZM47.2 211.5L34.1 234.2L21 211.5L34.1 188.8L47.2 211.5ZM47.2 258.5L34.1 281.2L21 258.5L34.1 235.8L47.2 258.5ZM47.2 305.5L34.1 328.2L21 305.5L34.1 282.8L47.2 305.5ZM47.2 352.5L34.1 375.2L21 352.5L34.1 329.8L47.2 352.5ZM34.8 376.4H61L74.1 399H47.9L34.8 376.4ZM61.7 376L74.8 353.3L87.9 376L74.8 398.7L61.7 376ZM88.6 376.4H114.8L101.7 399H75.5L88.6 376.4ZM116.2 376.4H142.4L155.5 399.1H129.3L116.2 376.4ZM143.1 376L156.2 353.3L169.3 376L156.2 398.7L143.1 376ZM170 376.4H196.2L183 399H156.8L170 376.4ZM197.6 376.4H223.8L236.9 399.1H210.7L197.6 376.4ZM224.4 376L237.5 353.3L250.6 376L237.5 398.7L224.4 376ZM251.3 376.4H277.5L264.4 399H238.2L251.3 376.4ZM278.9 376.4H305.1L318.2 399.1H292L278.9 376.4ZM305.8 376L318.9 353.3L332 376L318.9 398.7L305.8 376ZM332.7 376.4H358.9L345.8 399H319.6L332.7 376.4ZM360.3 376.4H386.5L399.6 399.1H373.4L360.3 376.4ZM387.2 376L400.3 353.3L413.4 376L400.3 398.7L387.2 376ZM414.1 376.4H440.3L427.2 399H401L414.1 376.4ZM441.7 376.4H467.9L481 399.1H454.8L441.7 376.4ZM468.6 376L481.7 353.3L494.8 376L481.7 398.7L468.6 376ZM495.5 376.4H521.7L508.6 399H482.4L495.5 376.4ZM523.1 376.4H549.3L562.4 399.1H536.2L523.1 376.4ZM550 376L563.1 353.3L576.2 376L563 398.6L550 376ZM535.4 70.5L522.3 93.2L509.2 70.5L522.3 47.7999L535.4 70.5ZM454.1 70.5L441 93.2L427.9 70.5L441 47.8999L454.1 70.5ZM372.7 70.5L359.6 93.2L346.5 70.5L359.6 47.7999L372.7 70.5ZM291.3 70.5L278.2 93.2L265.1 70.5L278.2 47.7999L291.3 70.5ZM209.9 70.5L196.8 93.2L183.7 70.5L196.8 47.7999L209.9 70.5ZM128.5 70.5L115.4 93.2L102.3 70.5L115.4 47.7999L128.5 70.5ZM47.2 70.5L34.1 93.2L21 70.5L34.1 47.7999L47.2 70.5ZM20.3 71L33.4 93.7H7.2L-5.9 71H20.3ZM7.2 94.5H33.4L20.3 117.2H-5.9L7.2 94.5ZM20.3 117.9L33.4 140.6H7.2L-5.9 117.9H20.3V117.9ZM7.2 141.4H33.4L20.3 164.1H-5.9L7.2 141.4ZM20.3 164.9L33.4 187.6H7.2L-5.9 164.9H20.3ZM7.2 188.4H33.4L20.3 211.1H-5.9L7.2 188.4ZM20.3 211.9L33.4 234.6H7.2L-5.9 211.9H20.3ZM7.2 235.4H33.4L20.3 258.1H-5.9L7.2 235.4ZM20.3 258.9L33.4 281.6H7.2L-5.9 258.9H20.3ZM7.2 282.4H33.4L20.3 305.1H-5.9L7.2 282.4ZM20.3 305.9L33.4 328.6H7.2L-5.9 305.9H20.3ZM7.2 329.4H33.4L20.3 352.1H-5.9L7.2 329.4ZM20.3 352.9L33.4 375.6H7.2L-5.9 352.9H20.3ZM7.2 376.4H33.4L20.3 399H-5.9L7.2 376.4ZM-5.9 399.9H20.3L33.4 422.6H7.2L-5.9 399.9ZM21 399.5L34.1 376.8L47.2 399.5L34.1 422.2L21 399.5ZM75.5 399.9H101.7L114.8 422.6H88.6L75.5 399.9ZM102.4 399.5L115.5 376.8L128.6 399.5L115.5 422.2L102.4 399.5ZM156.9 399.9H183L196.1 422.6H170L156.9 399.9ZM183.8 399.5L196.9 376.8L210 399.5L196.9 422.2L183.8 399.5ZM238.2 399.9H264.4L277.5 422.6H251.3L238.2 399.9ZM265.1 399.5L278.2 376.8L291.3 399.5L278.2 422.2L265.1 399.5ZM319.6 399.9H345.8L358.9 422.6H332.7L319.6 399.9ZM346.5 399.5L359.6 376.8L372.7 399.5L359.6 422.2L346.5 399.5ZM401 399.9H427.2L440.3 422.6H414.1L401 399.9ZM427.9 399.5L441 376.8L454.1 399.5L441 422.1L427.9 399.5ZM482.4 399.9H508.6L521.7 422.6H495.5L482.4 399.9ZM509.3 399.5L522.4 376.8L535.5 399.5L522.4 422.2L509.3 399.5ZM536.2 70.0999L523.1 47.3999H549.3L562.4 70.0999H536.2ZM454.8 70.0999L441.7 47.3999H467.9L481 70.0999H454.8ZM373.4 70.0999L360.3 47.3999H386.5L399.6 70.0999H373.4ZM292 70.0999L278.9 47.3999H305.1L318.2 70.0999H292ZM210.6 70.0999L197.5 47.3999H223.7L236.8 70.0999H210.6ZM129.3 70.0999L116.2 47.3999H142.4L155.5 70.0999H129.3ZM47.9 70.0999L34.8 47.5H61L74.1 70.2H47.9V70.0999ZM47.9 399.9H74.1L61 422.5H34.8L47.9 399.9ZM129.3 399.9H155.5L142.4 422.6H116.2L129.3 399.9ZM210.6 399.9H236.8L223.7 422.6H197.5L210.6 399.9ZM292 399.9H318.2L305.1 422.6H278.9L292 399.9ZM373.4 399.9H399.6L386.5 422.6H360.3L373.4 399.9ZM454.8 399.9H481L467.9 422.6H441.7L454.8 399.9ZM536.2 399.9H562.4L549.3 422.6H523.1L536.2 399.9ZM576.8 422.5L563.7 399.8H589.9L603 422.5H576.8ZM563.8 399L576.9 376.3H603L589.9 399H563.8ZM576.8 375.5L563.7 352.8H589.9L603 375.5H576.8ZM563.8 352.1L576.9 329.4H603L589.9 352.1H563.8ZM576.8 328.6L563.7 305.9H589.9L603 328.6H576.8ZM563.8 305.1L576.9 282.4H603L589.9 305.1H563.8ZM576.8 281.6L563.7 258.9H589.9L603 281.6H576.8ZM563.8 258.1L576.9 235.4H603L589.9 258.1H563.8ZM576.8 234.6L563.7 211.9H589.9L603 234.6H576.8ZM563.8 211.1L576.9 188.4H603L589.9 211.1H563.8ZM576.8 187.6L563.7 164.9H589.9L603 187.6H576.8ZM563.8 164.1L576.9 141.4H603L589.9 164.1H563.8ZM576.8 140.6L563.7 117.9H589.9L603 140.6H576.8ZM563.8 117.1L576.9 94.3999H603L589.9 117.1H563.8ZM576.8 93.5999L563.8 71H590L603 93.5999H576.8ZM563.8 70.0999L576.9 47.3999H603L589.9 70.0999H563.8ZM576.8 46.5999L563.8 24H590L603 46.5999H576.8ZM576.1 47.0999L563 69.7L550 47.0999L563 24.3999L576.1 47.0999ZM549.2 46.5999H523L536.2 24H562.4L549.2 46.5999ZM495.5 46.5999L482.4 24H508.6L521.7 46.7H495.5V46.5999ZM494.8 47.0999L481.7 69.8L468.6 47.0999L481.7 24.3999L494.8 47.0999ZM467.9 46.5999H441.7L454.8 24H481L467.9 46.5999ZM414.1 46.5999L401 24H427.2L440.3 46.7H414.1V46.5999ZM413.4 47.0999L400.3 69.8L387.2 47.0999L400.3 24.3999L413.4 47.0999ZM386.5 46.5999H360.3L373.4 24H399.6L386.5 46.5999ZM332.7 46.5999L319.6 24H345.8L358.9 46.7H332.7V46.5999ZM332 47.0999L318.9 69.8L305.8 47.0999L318.9 24.3999L332 47.0999ZM305.1 46.5999H278.9L292 24H318.2L305.1 46.5999ZM251.3 46.5999L238.2 24H264.4L277.5 46.7H251.3V46.5999ZM250.6 47.0999L237.5 69.8L224.4 47.0999L237.5 24.3999L250.6 47.0999ZM223.7 46.5999H197.5L210.6 24H236.8L223.7 46.5999ZM170 46.5999L156.9 24H183L196.1 46.7H170V46.5999ZM169.2 47.0999L156.1 69.8L143 47.0999L156.1 24.3999L169.2 47.0999ZM142.3 46.5999H116.1L129.3 24H155.5L142.3 46.5999ZM88.6 46.5999L75.5 24H101.7L114.8 46.7H88.6V46.5999ZM87.9 47.0999L74.8 69.7L61.7 47.0999L74.8 24.3999L87.9 47.0999ZM61 46.5999H34.8L47.9 24H74.1L61 46.5999ZM7.2 46.5999L-5.9 24H20.3L33.4 46.7H7.2V46.5999ZM6.5 47.0999L-6.6 69.7L-19.7 47L-6.6 24.2999L6.5 47.0999ZM6.5 94L-6.6 116.7L-19.7 94L-6.6 71.3L6.5 94ZM6.5 141L-6.6 163.7L-19.7 141L-6.6 118.3L6.5 141ZM6.5 188L-6.6 210.7L-19.7 188L-6.6 165.3L6.5 188ZM6.5 235L-6.6 257.7L-19.7 235L-6.6 212.3L6.5 235ZM6.5 282L-6.6 304.7L-19.7 282L-6.6 259.3L6.5 282ZM6.5 329L-6.6 351.7L-19.7 329L-6.6 306.3L6.5 329ZM6.5 376L-6.6 398.7L-19.7 376L-6.6 353.3L6.5 376ZM6.5 422.9L-6.6 445.6L-19.7 422.9L-6.6 400.2L6.5 422.9ZM7.2 423.4H33.4L20.3 446H-5.9L7.2 423.4ZM34.8 423.4H61L74.1 446H47.9L34.8 423.4ZM61.7 422.9L74.8 400.2L87.9 422.9L74.8 445.6L61.7 422.9ZM88.6 423.4H114.8L101.7 446H75.5L88.6 423.4ZM116.2 423.4H142.4L155.5 446.1H129.3L116.2 423.4ZM143.1 422.9L156.2 400.2L169.3 422.9L156.2 445.6L143.1 422.9ZM170 423.4H196.2L183 446H156.8L170 423.4ZM197.6 423.4H223.8L236.9 446.1H210.7L197.6 423.4ZM224.4 422.9L237.5 400.2L250.6 422.9L237.5 445.6L224.4 422.9ZM251.3 423.4H277.5L264.4 446H238.2L251.3 423.4ZM278.9 423.4H305.1L318.2 446.1H292L278.9 423.4ZM305.8 422.9L318.9 400.2L332 422.9L318.9 445.6L305.8 422.9ZM332.7 423.4H358.9L345.8 446H319.6L332.7 423.4ZM360.3 423.4H386.5L399.6 446.1H373.4L360.3 423.4ZM387.2 422.9L400.3 400.2L413.4 422.9L400.3 445.6L387.2 422.9ZM414.1 423.4H440.3L427.2 446H401L414.1 423.4ZM441.7 423.4H467.9L481 446.1H454.8L441.7 423.4ZM468.6 422.9L481.7 400.2L494.8 422.9L481.7 445.6L468.6 422.9ZM495.5 423.4H521.7L508.6 446H482.4L495.5 423.4ZM523.1 423.4H549.3L562.4 446.1H536.2L523.1 423.4ZM550 422.9L563.1 400.2L576.2 422.9L563 445.6L550 422.9ZM576.8 423.4H603L589.9 446H563.7L576.8 423.4ZM590.7 399.5L603.8 376.8L616.9 399.5L603.8 422.2L590.7 399.5ZM590.7 352.5L603.8 329.8L616.9 352.5L603.8 375.2L590.7 352.5ZM590.7 305.5L603.8 282.8L616.9 305.5L603.8 328.2L590.7 305.5ZM590.7 258.5L603.8 235.8L616.9 258.5L603.8 281.2L590.7 258.5ZM590.7 211.5L603.8 188.8L616.9 211.5L603.8 234.2L590.7 211.5ZM590.7 164.5L603.8 141.8L616.9 164.5L603.8 187.2L590.7 164.5ZM590.7 117.5L603.8 94.8L616.9 117.5L603.8 140.2L590.7 117.5ZM590.7 70.5L603.8 47.7999L616.9 70.5L603.8 93.2L590.7 70.5ZM603.7 46.2L590.6 23.5L603.7 0.79995L616.8 23.5L603.7 46.2ZM522.4 46.2L509.3 23.5L522.4 0.79995L535.5 23.5L522.4 46.2ZM441 46.2L427.9 23.5L441 0.899952L454.1 23.6L441 46.2ZM359.6 46.2L346.5 23.5L359.6 0.79995L372.7 23.5L359.6 46.2ZM278.2 46.2L265.1 23.5L278.2 0.79995L291.3 23.5L278.2 46.2ZM196.8 46.2L183.7 23.5L196.8 0.79995L209.9 23.5L196.8 46.2ZM115.5 46.2L102.4 23.5L115.5 0.79995L128.6 23.5L115.5 46.2ZM34.1 46.2L21 23.6L34.1 0.899952L47.2 23.6L34.1 46.2ZM-33.5 24H-7.3L-20.4 46.7H-46.6L-33.5 24ZM-20.4 47.5L-7.3 70.2H-33.5L-46.6 47.5H-20.4ZM-33.5 71H-7.3L-20.4 93.7H-46.6L-33.5 71ZM-20.4 94.5L-7.3 117.2H-33.5L-46.6 94.5H-20.4ZM-33.5 117.9H-7.3L-20.4 140.6H-46.6L-33.5 117.9ZM-20.4 141.4L-7.3 164.1H-33.5L-46.6 141.4H-20.4ZM-33.5 164.9H-7.3L-20.4 187.6H-46.6L-33.5 164.9ZM-20.4 188.4L-7.3 211.1H-33.5L-46.6 188.4H-20.4ZM-33.5 211.9H-7.3L-20.4 234.6H-46.6L-33.5 211.9ZM-20.4 235.4L-7.3 258.1H-33.5L-46.6 235.4H-20.4V235.4ZM-33.5 258.9H-7.3L-20.4 281.6H-46.6L-33.5 258.9ZM-20.4 282.4L-7.3 305.1H-33.5L-46.6 282.4H-20.4ZM-33.5 305.9H-7.3L-20.4 328.6H-46.6L-33.5 305.9ZM-20.4 329.4L-7.3 352.1H-33.5L-46.6 329.4H-20.4ZM-33.5 352.9H-7.3L-20.4 375.6H-46.6L-33.5 352.9ZM-20.4 376.4L-7.3 399H-33.5L-46.6 376.3H-20.4V376.4ZM-33.5 399.9H-7.3L-20.4 422.6H-46.6L-33.5 399.9ZM-20.4 423.4L-7.3 446H-33.5L-46.6 423.3H-20.4V423.4ZM-5.9 446.9H20.3L33.4 469.6H7.2L-5.9 446.9ZM21 446.4L34.1 423.7L47.2 446.4L34.1 469.1L21 446.4ZM75.5 446.9H101.7L114.8 469.6H88.6L75.5 446.9ZM102.4 446.4L115.5 423.7L128.6 446.4L115.5 469.1L102.4 446.4ZM156.9 446.9H183L196.1 469.6H170L156.9 446.9ZM183.8 446.4L196.9 423.7L210 446.4L196.9 469.1L183.8 446.4ZM238.2 446.9H264.4L277.5 469.6H251.3L238.2 446.9ZM265.1 446.4L278.2 423.7L291.3 446.4L278.2 469.1L265.1 446.4ZM319.6 446.9H345.8L358.9 469.6H332.7L319.6 446.9ZM346.5 446.4L359.6 423.7L372.7 446.4L359.6 469.1L346.5 446.4ZM401 446.9H427.2L440.3 469.6H414.1L401 446.9ZM427.9 446.4L441 423.7L454.1 446.4L441 469.1L427.9 446.4ZM482.4 446.9H508.6L521.7 469.6H495.5L482.4 446.9ZM509.3 446.4L522.4 423.7L535.5 446.4L522.4 469.1L509.3 446.4ZM563.8 446.9H590L603.1 469.6H576.9L563.8 446.9ZM590.7 446.4L603.8 423.7L616.9 446.4L603.8 469.1L590.7 446.4ZM604.5 47.5H630.7L643.8 70.2H617.6L604.5 47.5ZM604.5 46.5999L617.5 24H643.7L630.6 46.7H604.5V46.5999ZM617.5 23.1L604.5 0.49995H630.7L643.8 23.2H617.5V23.1ZM576.8 -0.300049L563.8 -23H590L603 -0.300049H576.8ZM576.1 0.0999489L563 22.7L550 0.0999489L563 -22.6L576.1 0.0999489ZM562.3 23.1H536.1L523.1 0.49995H549.3L562.3 23.1ZM495.5 -0.300049L482.4 -23H508.6L521.7 -0.300049H495.5V-0.300049ZM494.8 0.0999489L481.7 22.7999L468.6 0.0999489L481.7 -22.6L494.8 0.0999489ZM480.9 23.1H454.7L441.7 0.49995H467.9L480.9 23.1ZM414.1 -0.300049L401 -23H427.2L440.3 -0.300049H414.1V-0.300049ZM413.4 0.0999489L400.3 22.7999L387.2 0.0999489L400.3 -22.6L413.4 0.0999489ZM399.6 23.1H373.4L360.3 0.49995H386.5L399.6 23.1ZM332.7 -0.300049L319.6 -23H345.8L358.9 -0.300049H332.7V-0.300049ZM332 0.0999489L318.9 22.7999L305.8 0.0999489L318.9 -22.6L332 0.0999489ZM318.2 23.1H292L278.9 0.49995H305.1L318.2 23.1ZM251.3 -0.300049L238.2 -23H264.4L277.5 -0.300049H251.3V-0.300049ZM250.6 0.0999489L237.5 22.7999L224.4 0.0999489L237.5 -22.6L250.6 0.0999489ZM236.8 23.1H210.6L197.6 0.49995H223.8L236.8 23.1ZM170 -0.300049L156.9 -23H183L196.1 -0.300049H170V-0.300049ZM169.2 0.0999489L156.1 22.7999L143.1 0.0999489L156.2 -22.6L169.2 0.0999489ZM155.4 23.1H129.2L116.2 0.49995H142.4L155.4 23.1ZM88.6 -0.300049L75.5 -23H101.7L114.8 -0.300049H88.6V-0.300049ZM87.9 0.0999489L74.8 22.7L61.7 0.0999489L74.8 -22.6L87.9 0.0999489ZM74.1 23.1H47.9L34.8 0.49995H61L74.1 23.1ZM7.2 -0.300049L-5.9 -23H20.3L33.4 -0.300049H7.2ZM6.5 0.0999489L-6.6 22.7L-19.7 0.0999489L-6.6 -22.6L6.5 0.0999489ZM-7.3 23.1H-33.5L-46.6 0.49995H-20.4L-7.3 23.1ZM-34.2 23.6L-47.3 46.2999L-60.4 23.6L-47.3 0.899952L-34.2 23.6ZM-34.2 70.5L-47.3 93.2L-60.4 70.5L-47.3 47.7999L-34.2 70.5ZM-34.2 117.5L-47.3 140.2L-60.4 117.5L-47.3 94.8L-34.2 117.5ZM-34.2 164.5L-47.3 187.2L-60.4 164.5L-47.3 141.8L-34.2 164.5ZM-34.2 211.5L-47.3 234.2L-60.4 211.5L-47.3 188.8L-34.2 211.5ZM-34.2 258.5L-47.3 281.2L-60.4 258.5L-47.3 235.8L-34.2 258.5ZM-34.2 305.5L-47.3 328.2L-60.4 305.5L-47.3 282.8L-34.2 305.5ZM-34.2 352.5L-47.3 375.2L-60.4 352.5L-47.3 329.8L-34.2 352.5ZM-34.2 399.5L-47.3 422.2L-60.4 399.5L-47.3 376.8L-34.2 399.5ZM-34.2 446.4L-47.3 469.1L-60.4 446.4L-47.3 423.7L-34.2 446.4ZM-33.5 446.9H-7.3L-20.4 469.6H-46.6L-33.5 446.9ZM-6.6 447.3L6.5 470L-6.6 492.7L-19.7 470L-6.6 447.3ZM7.2 470.3H33.4L20.3 493H-5.9L7.2 470.3ZM47.9 446.9H74.1L61 469.5H34.8L47.9 446.9ZM74.8 447.3L87.9 470L74.8 492.7L61.7 470L74.8 447.3ZM88.6 470.3H114.8L101.7 493H75.5L88.6 470.3ZM129.3 446.9H155.5L142.4 469.6H116.2L129.3 446.9ZM156.1 447.3L169.2 470L156.1 492.7L143 470L156.1 447.3ZM170 470.3H196.2L183 493H156.8L170 470.3ZM210.6 446.9H236.8L223.7 469.6H197.5L210.6 446.9ZM237.5 447.3L250.6 470L237.5 492.7L224.4 470L237.5 447.3ZM251.3 470.3H277.5L264.4 493H238.2L251.3 470.3ZM292 446.9H318.2L305.1 469.6H278.9L292 446.9ZM318.9 447.3L332 470L318.9 492.7L305.8 470L318.9 447.3ZM332.7 470.3H358.9L345.8 493H319.6L332.7 470.3ZM373.4 446.9H399.6L386.5 469.6H360.3L373.4 446.9ZM400.3 447.3L413.4 470L400.3 492.7L387.2 470L400.3 447.3ZM414.1 470.3H440.3L427.2 493H401L414.1 470.3ZM454.8 446.9H481L467.9 469.6H441.7L454.8 446.9ZM481.7 447.3L494.8 470L481.7 492.7L468.6 470L481.7 447.3ZM495.5 470.3H521.7L508.6 493H482.4L495.5 470.3ZM536.2 446.9H562.4L549.3 469.6H523.1L536.2 446.9ZM563 447.3L576.1 470L563 492.6L550 469.9L563 447.3ZM576.8 470.3H603L589.9 493H563.7L576.8 470.3ZM617.5 446.9H643.7L630.6 469.6H604.4L617.5 446.9ZM617.5 446L604.4 423.3H630.6L643.7 446H617.5ZM604.5 422.5L617.6 399.8H643.8L630.7 422.5H604.5ZM617.5 399L604.4 376.3H630.6L643.7 399H617.5ZM604.5 375.5L617.6 352.8H643.8L630.7 375.5H604.5ZM617.5 352.1L604.4 329.4H630.6L643.7 352.1H617.5ZM604.5 328.6L617.6 305.9H643.8L630.7 328.6H604.5ZM617.5 305.1L604.4 282.4H630.6L643.7 305.1H617.5ZM604.5 281.6L617.6 258.9H643.8L630.7 281.6H604.5ZM617.5 258.1L604.4 235.4H630.6L643.7 258.1H617.5ZM604.5 234.6L617.6 211.9H643.8L630.7 234.6H604.5ZM617.5 211.1L604.4 188.4H630.6L643.7 211.1H617.5ZM604.5 187.6L617.6 164.9H643.8L630.7 187.6H604.5ZM617.5 164.1L604.4 141.4H630.6L643.7 164.1H617.5ZM604.5 140.6L617.6 117.9H643.8L630.7 140.6H604.5ZM617.5 117.1L604.4 94.3999H630.6L643.7 117.1H617.5ZM604.5 93.5999L617.5 71H643.7L630.6 93.7H604.5V93.5999ZM631.3 47.0999L644.4 24.3999L657.5 47.0999L644.4 69.8L631.3 47.0999ZM657.5 0.0999489L644.4 22.7999L631.3 0.0999489L644.4 -22.6L657.5 0.0999489ZM630.6 -0.300049H604.4L617.5 -23H643.7L630.6 -0.300049ZM616.8 -23.4L603.7 -0.800049L590.6 -23.5L603.7 -46.2001L616.8 -23.4ZM576.8 -46.5H603L589.9 -23.8H563.7L576.8 -46.5ZM549.2 -0.300049H523L536.2 -23H562.4L549.2 -0.300049ZM535.4 -23.4L522.4 -0.800049L509.3 -23.5L522.4 -46.2001L535.4 -23.4ZM495.5 -46.5H521.7L508.6 -23.8H482.4L495.5 -46.5ZM467.9 -0.300049H441.7L454.8 -23H481L467.9 -0.300049ZM454.1 -23.4L441 -0.800049L427.9 -23.5L441 -46.1L454.1 -23.4ZM414.1 -46.5H440.3L427.2 -23.8H401L414.1 -46.5ZM386.5 -0.300049H360.3L373.4 -23H399.6L386.5 -0.300049ZM372.7 -23.4L359.6 -0.800049L346.5 -23.5L359.6 -46.2001L372.7 -23.4ZM332.7 -46.5H358.9L345.8 -23.8H319.6L332.7 -46.5ZM305.1 -0.300049H278.9L292 -23H318.2L305.1 -0.300049ZM291.3 -23.4L278.2 -0.800049L265.1 -23.5L278.2 -46.2001L291.3 -23.4ZM251.3 -46.5H277.5L264.4 -23.8H238.2L251.3 -46.5ZM223.7 -0.300049H197.5L210.6 -23H236.8L223.7 -0.300049ZM209.9 -23.4L196.8 -0.800049L183.7 -23.5L196.8 -46.2001L209.9 -23.4ZM170 -46.5H196.2L183 -23.8H156.8L170 -46.5ZM142.3 -0.300049H116.1L129.3 -23H155.5L142.3 -0.300049ZM128.5 -23.4L115.5 -0.800049L102.4 -23.5L115.5 -46.2001L128.5 -23.4ZM88.6 -46.5H114.8L101.7 -23.8H75.5L88.6 -46.5ZM61 -0.300049H34.8L47.9 -23H74.1L61 -0.300049ZM47.2 -23.4L34.1 -0.800049L21 -23.4L34.1 -46.1L47.2 -23.4ZM7.2 -46.5H33.4L20.3 -23.8H-5.9L7.2 -46.5ZM-20.4 -0.300049H-46.6L-33.5 -23H-7.3L-20.4 -0.300049ZM-34.2 -23.4L-47.3 -0.800049L-60.4 -23.5L-47.3 -46.2001L-34.2 -23.4ZM-74.2 -46.5H-48L-61.1 -23.8H-87.3L-74.2 -46.5ZM-61.1 -23L-48 -0.300049H-74.2L-87.3 -23H-61.1ZM-74.2 0.49995H-48L-61.1 23.2H-87.3L-74.2 0.49995ZM-61.1 24L-48 46.5999H-74.2L-87.3 24H-61.1ZM-74.2 47.5H-48L-61.1 70.2H-87.3L-74.2 47.5ZM-61.1 71L-48 93.5999H-74.2L-87.3 71H-61.1ZM-74.2 94.5H-48L-61.1 117.2H-87.3L-74.2 94.5ZM-61.1 117.9L-48 140.6H-74.2L-87.3 117.9H-61.1V117.9ZM-74.2 141.4H-48L-61.1 164.1H-87.3L-74.2 141.4ZM-61.1 164.9L-48 187.6H-74.2L-87.3 164.9H-61.1ZM-74.2 188.4H-48L-61.1 211.1H-87.3L-74.2 188.4ZM-61.1 211.9L-48 234.6H-74.2L-87.3 211.9H-61.1ZM-74.2 235.4H-48L-61.1 258.1H-87.3L-74.2 235.4ZM-61.1 258.9L-48 281.6H-74.2L-87.3 258.9H-61.1ZM-74.2 282.4H-48L-61.1 305.1H-87.3L-74.2 282.4ZM-61.1 305.9L-48 328.6H-74.2L-87.3 305.9H-61.1ZM-74.2 329.4H-48L-61.1 352.1H-87.3L-74.2 329.4ZM-61.1 352.9L-48 375.6H-74.2L-87.3 352.9H-61.1ZM-74.2 376.4H-48L-61.1 399H-87.3L-74.2 376.4ZM-61.1 399.9L-48 422.6H-74.2L-87.3 399.9H-61.1ZM-74.2 423.4H-48L-61.1 446H-87.3L-74.2 423.4ZM-61.1 446.9L-48 469.6H-74.2L-87.3 446.9H-61.1ZM-74.2 470.3H-48L-61.1 493H-87.3L-74.2 470.3ZM-74.2 516.5L-87.3 493.8H-61.1L-48 516.5H-74.2ZM-47.3 516.1L-60.4 493.4L-47.3 470.7L-34.2 493.4L-47.3 516.1ZM-33.5 493L-46.6 470.3H-20.4L-7.3 493H-33.5ZM7.2 516.5L-5.9 493.8H20.3L33.4 516.5H7.2ZM34.1 516.1L21 493.4L34.1 470.7L47.2 493.4L34.1 516.1ZM47.9 493L34.8 470.3H61L74.1 493H47.9ZM88.6 516.5L75.5 493.8H101.7L114.8 516.5H88.6ZM115.5 516.1L102.4 493.4L115.5 470.7L128.6 493.4L115.5 516.1ZM129.3 493L116.2 470.3H142.4L155.5 493H129.3ZM170 516.5L156.9 493.8H183L196.1 516.5H170ZM196.8 516.1L183.7 493.4L196.8 470.7L209.9 493.4L196.8 516.1ZM210.6 493L197.5 470.3H223.7L236.8 493H210.6ZM251.3 516.5L238.2 493.8H264.4L277.5 516.5H251.3ZM278.2 516.1L265.1 493.4L278.2 470.7L291.3 493.4L278.2 516.1ZM292 493L278.9 470.3H305.1L318.2 493H292ZM332.7 516.5L319.6 493.8H345.8L358.9 516.5H332.7ZM359.6 516.1L346.5 493.4L359.6 470.7L372.7 493.4L359.6 516.1ZM373.4 493L360.3 470.3H386.5L399.6 493H373.4ZM414.1 516.5L401 493.8H427.2L440.3 516.5H414.1ZM441 516.1L427.9 493.4L441 470.7L454.1 493.4L441 516.1ZM454.8 493L441.7 470.3H467.9L481 493H454.8ZM495.5 516.5L482.4 493.8H508.6L521.7 516.5H495.5ZM522.4 516.1L509.3 493.4L522.4 470.7L535.5 493.4L522.4 516.1ZM536.2 493L523.1 470.3H549.3L562.4 493H536.2ZM576.8 516.5L563.7 493.8H589.9L603 516.5H576.8ZM603.7 516.1L590.6 493.4L603.7 470.7L616.8 493.4L603.7 516.1ZM617.5 493L604.4 470.3H630.6L643.7 493H617.5ZM644.4 492.6L631.3 469.9L644.4 447.2L657.5 469.9L644.4 492.6ZM644.4 445.6L631.3 422.9L644.4 400.2L657.5 422.9L644.4 445.6ZM644.4 398.6L631.3 376L644.4 353.3L657.5 376L644.4 398.6ZM644.4 351.6L631.3 329L644.4 306.3L657.5 329L644.4 351.6ZM644.4 304.6L631.3 282L644.4 259.3L657.5 282L644.4 304.6ZM644.4 257.7L631.3 235L644.4 212.3L657.5 235L644.4 257.7ZM644.4 210.7L631.3 188L644.4 165.3L657.5 188L644.4 210.7ZM644.4 163.7L631.3 141L644.4 118.3L657.5 141L644.4 163.7ZM644.4 116.7L631.3 94L644.4 71.3L657.5 94L644.4 116.7Z" fill="url(#paint0_linear_72_40)"/>
<!--</g>-->
<defs>
<linearGradient id="paint0_linear_72_40" x1="658.328" y1="-47.1698" x2="115.155" y2="671.354" gradientUnits="userSpaceOnUse">
<stop stop-color="#FF41E0"/>
<stop offset="0.635417" stop-color="#FF42E1" stop-opacity="0"/>
</linearGradient>
<clipPath id="clip0_72_40">
<rect width="570" height="470" fill="white"/>
</clipPath>
</defs>
</svg>
